<?xml version="1.0" encoding="UTF-8" standalone="no"?>
<!-- Created with Inkscape (http://www.inkscape.org/) -->

<svg
   xmlns:dc="http://purl.org/dc/elements/1.1/"
   xmlns:cc="http://creativecommons.org/ns#"
   xmlns:rdf="http://www.w3.org/1999/02/22-rdf-syntax-ns#"
   xmlns:svg="http://www.w3.org/2000/svg"
   xmlns="http://www.w3.org/2000/svg"
   xmlns:sodipodi="http://sodipodi.sourceforge.net/DTD/sodipodi-0.dtd"
   xmlns:inkscape="http://www.inkscape.org/namespaces/inkscape"
   width="5.0799999mm"
   height="128.5mm"
   viewBox="0 0 5.0799997 128.5"
   version="1.1"
   id="svg85367"
   inkscape:version="0.92.4 (5da689c313, 2019-01-14)"
   sodipodi:docname="CM-6.svg">
  <defs
     id="defs85361">
    <filter
       style="color-interpolation-filters:sRGB"
       inkscape:label="Lightness-Contrast"
       id="filter9267">
      <feColorMatrix
         values="1.386 0 0 0.00310677 -0.193 0 1.386 0 0.00310677 -0.193 0 0 1.386 0.00310677 -0.193 0 0 0 1 0"
         id="feColorMatrix9265" />
    </filter>
    <marker
       id="Arrow2Sstart"
       inkscape:isstock="true"
       inkscape:stockid="Arrow2Sstart"
       orient="auto"
       refX="0"
       refY="0"
       style="overflow:visible">
      <path
         d="M 8.72,4.03 -2.21,0.02 8.72,-4 c -1.75,2.37 -1.74,5.62 0,8.03 z"
         id="Arrow2SstartPath"
         style="fill:#000000;fill-opacity:1;stroke:#000000;stroke-opacity:1"
         transform="matrix(0.3,0,0,0.3,-0.69,0)"
         inkscape:connector-curvature="0" />
    </marker>
    <marker
       id="Arrow2Send"
       inkscape:isstock="true"
       inkscape:stockid="Arrow2Send"
       orient="auto"
       refX="0"
       refY="0"
       style="overflow:visible">
      <path
         d="M 8.72,4.03 -2.21,0.02 8.72,-4 c -1.75,2.37 -1.74,5.62 0,8.03 z"
         id="Arrow2SendPath"
         style="fill:#000000;fill-opacity:1;stroke:#000000;stroke-opacity:1"
         transform="matrix(-0.3,0,0,-0.3,0.69,0)"
         inkscape:connector-curvature="0" />
    </marker>
  </defs>
  <sodipodi:namedview
     id="base"
     pagecolor="#ffffff"
     bordercolor="#666666"
     borderopacity="1.0"
     inkscape:pageopacity="0.0"
     inkscape:pageshadow="2"
     inkscape:zoom="1.6715437"
     inkscape:cx="-60.584681"
     inkscape:cy="263.09595"
     inkscape:document-units="mm"
     inkscape:current-layer="layer3"
     showgrid="false"
     fit-margin-top="0"
     fit-margin-left="0"
     fit-margin-right="0"
     fit-margin-bottom="0"
     units="px"
     inkscape:window-width="1920"
     inkscape:window-height="1017"
     inkscape:window-x="-8"
     inkscape:window-y="-8"
     inkscape:window-maximized="1"
     inkscape:snap-bbox="true"
     inkscape:bbox-nodes="true"
     inkscape:object-nodes="true"
     inkscape:snap-page="true"
     inkscape:object-paths="false"
     inkscape:snap-bbox-edge-midpoints="true"
     inkscape:bbox-paths="false"
     inkscape:snap-bbox-midpoints="true"
     inkscape:snap-intersection-paths="false"
     inkscape:snap-smooth-nodes="false"
     inkscape:snap-midpoints="false"
     inkscape:snap-object-midpoints="false"
     inkscape:snap-center="false"
     inkscape:snap-others="false"
     showguides="true"
     inkscape:guide-bbox="true"
     inkscape:snap-global="false"
     inkscape:snap-nodes="true" />
  <metadata
     id="metadata85364">
    <rdf:RDF>
      <cc:Work
         rdf:about="">
        <dc:format>image/svg+xml</dc:format>
        <dc:type
           rdf:resource="http://purl.org/dc/dcmitype/StillImage" />
        <dc:title />
      </cc:Work>
    </rdf:RDF>
  </metadata>
  <g
     inkscape:groupmode="layer"
     id="layer3"
     inkscape:label="Layer 2"
     style="display:inline"
     transform="translate(0,105.66934)">
    <g
       id="g10607"
       transform="matrix(0.09090127,0,0,1,0,1.644659e-6)">
      <path
         sodipodi:nodetypes="cccc"
         inkscape:connector-curvature="0"
         id="rect817"
         d="M 0,-105.66934 C 14.31816,-64.122725 30.53306,22.830661 30.533057,22.830658 H 0 Z"
         style="display:inline;opacity:1;vector-effect:none;fill:#93bfa5;fill-opacity:1;fill-rule:evenodd;stroke:none;stroke-width:0.53800601;stroke-linecap:butt;stroke-linejoin:round;stroke-miterlimit:4;stroke-dasharray:none;stroke-dashoffset:0;stroke-opacity:1;paint-order:normal" />
      <path
         sodipodi:nodetypes="cccc"
         inkscape:connector-curvature="0"
         id="path858"
         d="m 0,-105.66934 h 55.88481 l -0.0048,74.557325 z"
         style="display:inline;fill:#9bc4ac;fill-opacity:1;stroke:none;stroke-width:0.29308614px;stroke-linecap:butt;stroke-linejoin:miter;stroke-opacity:1" />
      <path
         sodipodi:nodetypes="ccccc"
         inkscape:connector-curvature="0"
         id="path860"
         d="m 0,-105.66934 55.880002,74.557325 V 22.830658 H 30.533057 Z"
         style="display:inline;fill:#adccb9;fill-opacity:1;stroke:none;stroke-width:0.29307353px;stroke-linecap:butt;stroke-linejoin:miter;stroke-opacity:1" />
    </g>
    <g
       id="g2029"
       transform="matrix(1.2780771,0,0,1.2780771,0,-105.33118)">
      <g
         style="display:inline;stroke:#c06969;stroke-width:0.30000001;stroke-miterlimit:4;stroke-dasharray:none;stroke-opacity:1"
         id="g6392"
         transform="translate(0.124394,-195.6965)">
        <path
           style="opacity:1;fill:#29e376;fill-opacity:1;stroke:#c06969;stroke-width:0.55108583;stroke-linecap:butt;stroke-linejoin:round;stroke-miterlimit:4;stroke-dasharray:none;stroke-opacity:1"
           d="m -0.124394,291.95994 3.974721,0.004"
           id="path4640-8"
           inkscape:connector-curvature="0"
           sodipodi:nodetypes="cc" />
      </g>
    </g>
    <g
       aria-label="May the Light shine forever upon you"
       transform="rotate(-90,0.28023272,-0.28023272)"
       style="font-style:normal;font-variant:normal;font-weight:bold;font-stretch:normal;font-size:4.52780771px;line-height:1.25;font-family:'Courier New';-inkscape-font-specification:'Courier New Bold';letter-spacing:0px;word-spacing:0px;fill:#93bfa5;fill-opacity:1;stroke:none;stroke-width:0.37731734"
       id="text22649">
      <path
         d="m -6.7007753,1.6965632 v 1.3508254 h 0.1636024 q 0.1636025,0 0.2321386,0.064115 0.070747,0.061904 0.070747,0.1636024 0,0.099488 -0.070747,0.1636024 -0.068536,0.061904 -0.2321386,0.061904 h -0.5947169 q -0.1636024,0 -0.2321386,-0.061904 -0.070747,-0.064114 -0.070747,-0.1658132 0,-0.099488 0.068536,-0.1613916 0.068536,-0.064115 0.212241,-0.064115 V 1.274292 Q -7.273384,1.263238 -7.3352876,1.201334 -7.3949806,1.13943 -7.3949806,1.0465749 q 0,-0.10169877 0.068536,-0.16360239 0.070747,-0.0641145 0.2343494,-0.0641145 l 0.4974398,0.002211 0.6168254,1.36409049 0.6057711,-1.36630133 0.5018615,0.002211 q 0.1636024,0 0.2321386,0.0619036 0.070747,0.0619036 0.070747,0.16360243 0,0.092855 -0.061904,0.1547591 -0.061904,0.061904 -0.1790784,0.072958 v 1.7730966 q 0.1437049,0 0.212241,0.064115 0.068536,0.064114 0.068536,0.1636024 0,0.099488 -0.070747,0.1636024 -0.068536,0.061904 -0.2321386,0.061904 h -0.5969278 q -0.1613916,0 -0.2321386,-0.061904 -0.068536,-0.064114 -0.068536,-0.1658132 0,-0.099488 0.068536,-0.1613916 0.070747,-0.064115 0.2321386,-0.064115 h 0.1658133 V 1.6965632 l -0.5195483,1.1673254 h -0.3935301 z"
         style="fill:#93bfa5;fill-opacity:1;stroke-width:0.37731734"
         id="path22651"
         inkscape:connector-curvature="0" />
      <path
         d="M -2.8693833,3.5006115 V 3.3944911 q -0.1702349,0.090644 -0.3758434,0.1348614 -0.2056085,0.046428 -0.3736326,0.046428 -0.3647892,0 -0.5925061,-0.1923434 -0.2277168,-0.1945542 -0.2277168,-0.4289036 0,-0.2851989 0.2896205,-0.5283917 0.2918313,-0.2454036 0.804747,-0.2454036 0.2056085,0 0.4753314,0.044217 V 2.1166234 q 0,-0.1016988 -0.088434,-0.1658132 -0.086223,-0.064115 -0.3316266,-0.064115 -0.2011867,0 -0.5217591,0.07959 -0.1193855,0.028741 -0.1857108,0.028741 -0.090645,0 -0.1547591,-0.064114 -0.061904,-0.066325 -0.061904,-0.1680241 0,-0.057482 0.022108,-0.099488 0.022108,-0.042006 0.061904,-0.066325 0.039795,-0.02653 0.1658132,-0.061904 0.1680241,-0.046428 0.3426808,-0.072958 0.1746566,-0.028741 0.3161506,-0.028741 0.4222712,0 0.6544097,0.1835 0.2343495,0.1812892 0.2343495,0.4974398 v 0.932976 h 0.07738 q 0.1636024,0 0.2321386,0.064115 0.070747,0.061904 0.070747,0.1636024 0,0.099488 -0.070747,0.1636024 -0.068536,0.061904 -0.2321386,0.061904 z m 0,-0.8113796 q -0.2719337,-0.05306 -0.5018615,-0.05306 -0.2763554,0 -0.4753314,0.1348615 -0.1238072,0.086223 -0.1238072,0.1746566 0,0.064115 0.059693,0.1039096 0.1105422,0.072958 0.3028855,0.072958 0.1636025,0 0.3692109,-0.064115 0.2078193,-0.064114 0.3692109,-0.1746566 z"
         style="fill:#93bfa5;fill-opacity:1;stroke-width:0.37731734"
         id="path22653"
         inkscape:connector-curvature="0" />
      <path
         d="M -0.81550953,3.4851356 -1.600359,1.9463885 q -0.1105422,-0.013265 -0.1680241,-0.075169 -0.057482,-0.061904 -0.057482,-0.1503374 0,-0.1016988 0.068536,-0.1636024 0.070747,-0.064115 0.2343494,-0.064115 h 0.4134278 q 0.16360239,0 0.23213854,0.064115 0.070747,0.061904 0.070747,0.1636024 0,0.099488 -0.070747,0.1636025 -0.0685362,0.061904 -0.21887354,0.061904 l 0.53502418,1.0413073 0.53060247,-1.0413073 q -0.14591568,0 -0.21666268,-0.061904 -0.0685362,-0.064114 -0.0685362,-0.1658133 0,-0.099488 0.0685362,-0.1613916 0.070747,-0.064115 0.23434943,-0.064115 h 0.42669281 q 0.16139159,0 0.22992774,0.064115 0.070747,0.061904 0.070747,0.1636024 0,0.090645 -0.0596928,0.1547591 -0.0596928,0.061904 -0.17686749,0.070747 l -1.0390965,2.0472412 q 0.17023496,0 0.22329521,0.033163 0.10612049,0.068536 0.10612049,0.1945543 0,0.099488 -0.070747,0.1613915 -0.0685361,0.064114 -0.23213858,0.064114 H -1.5229797 q -0.1636024,0 -0.2343494,-0.064114 -0.068536,-0.061904 -0.068536,-0.1613915 0,-0.1016988 0.068536,-0.1658133 0.070747,-0.061904 0.2343494,-0.061904 h 0.4510121 z"
         style="fill:#93bfa5;fill-opacity:1;stroke-width:0.37731734"
         id="path22655"
         inkscape:connector-curvature="0" />
      <path
         d="m 4.7558164,1.9463885 v 0.9086567 q 0,0.1459157 0.059693,0.1923434 0.092855,0.072958 0.3316266,0.072958 0.3471024,0 0.6411446,-0.1481265 0.112753,-0.057482 0.1768675,-0.057482 0.088434,0 0.1525482,0.066325 0.066325,0.066325 0.066325,0.1613916 0,0.088434 -0.070747,0.1525482 -0.1083313,0.1039096 -0.4289036,0.1923434 -0.3183615,0.086223 -0.537235,0.086223 -0.4222712,0 -0.6345122,-0.1812892 -0.21003,-0.1834999 -0.21003,-0.4488011 V 1.9463885 H 4.1389911 q -0.1636025,0 -0.2343495,-0.061904 -0.068536,-0.064114 -0.068536,-0.1658133 0,-0.099488 0.068536,-0.1613916 0.070747,-0.064115 0.2343495,-0.064115 h 0.1636024 v -0.409006 q 0,-0.16360245 0.061904,-0.2321386 0.064114,-0.070747 0.1658133,-0.070747 0.099488,0 0.1613916,0.070747 0.064114,0.0685362 0.064114,0.2321386 v 0.409006 h 0.8379098 q 0.1636024,0 0.2321385,0.064115 0.070747,0.061904 0.070747,0.1636024 0,0.099488 -0.070747,0.1636025 -0.068536,0.061904 -0.2321385,0.061904 z"
         style="fill:#93bfa5;fill-opacity:1;stroke-width:0.37731734"
         id="path22657"
         inkscape:connector-curvature="0" />
      <path
         d="M 7.1147868,0.63314738 V 1.599286 q 0.141494,-0.084012 0.2851989,-0.1238072 0.1459157,-0.042006 0.2940422,-0.042006 0.2343494,0 0.4178494,0.07959 0.1835,0.07959 0.3028856,0.2520362 0.1215964,0.170235 0.1215964,0.4311145 v 0.8511748 q 0.1724458,0 0.225506,0.033163 0.1061205,0.068536 0.1061205,0.1945542 0,0.099488 -0.068536,0.1636024 -0.068536,0.061904 -0.2321386,0.061904 H 8.0499737 q -0.1613916,0 -0.2321386,-0.061904 -0.068536,-0.064114 -0.068536,-0.1658132 0,-0.1238073 0.1061205,-0.1923434 0.055271,-0.035374 0.225506,-0.033163 v -0.820223 q 0,-0.1746566 -0.07959,-0.2454036 -0.1039096,-0.095066 -0.3073072,-0.095066 -0.1503374,0 -0.2675121,0.059693 -0.1149639,0.057482 -0.311729,0.2520362 v 0.8489639 q 0.1746567,0 0.2255061,0.033163 0.1083313,0.068536 0.1083313,0.1945542 0,0.099488 -0.070747,0.1636024 -0.068536,0.061904 -0.2321385,0.061904 H 6.6306121 q -0.1636024,0 -0.2343494,-0.061904 -0.068536,-0.064114 -0.068536,-0.1658132 0,-0.1238073 0.1083314,-0.1923434 0.05306,-0.035374 0.225506,-0.033163 V 1.0863703 h -0.07738 q -0.1636024,0 -0.2343494,-0.061904 -0.068536,-0.0641145 -0.068536,-0.16581327 0,-0.099488 0.068536,-0.16139158 0.070747,-0.0641145 0.2343494,-0.0641145 z"
         style="fill:#93bfa5;fill-opacity:1;stroke-width:0.37731734"
         id="path22659"
         inkscape:connector-curvature="0" />
      <path
         d="M 11.434775,2.7268163 H 9.5754551 q 0.070747,0.1768675 0.2498253,0.2851988 0.1812896,0.1083313 0.4885966,0.1083313 0.252036,0 0.669885,-0.1083313 0.172446,-0.044217 0.238772,-0.044217 0.09064,0 0.152548,0.064115 0.0619,0.064115 0.0619,0.1613916 0,0.088434 -0.06632,0.1503373 -0.08843,0.081801 -0.431114,0.1569699 -0.342681,0.072958 -0.658832,0.072958 -0.5438673,0 -0.8710722,-0.3073073 -0.324994,-0.3073072 -0.324994,-0.7561085 0,-0.4775422 0.3515242,-0.7760061 0.3537349,-0.3006747 0.81359,-0.3006747 0.276356,0 0.506284,0.097277 0.232138,0.097277 0.344891,0.2100301 0.159181,0.1636025 0.263091,0.4045844 0.07075,0.1680241 0.07075,0.3891085 z m -0.501862,-0.453223 q -0.10391,-0.1945542 -0.271934,-0.2896205 -0.168024,-0.097277 -0.400162,-0.097277 -0.229928,0 -0.3979522,0.097277 -0.1680241,0.095066 -0.2741446,0.2896205 z"
         style="fill:#93bfa5;fill-opacity:1;stroke-width:0.37731734"
         id="path22661"
         inkscape:connector-curvature="0" />
      <path
         d="m 15.538101,1.274292 v 1.7730966 h 0.977193 V 2.6184849 q 0,-0.1636024 0.0619,-0.2321385 0.06411,-0.070747 0.165814,-0.070747 0.09949,0 0.161391,0.070747 0.06411,0.068536 0.06411,0.2321385 V 3.5006115 H 14.82178 q -0.163603,0 -0.23435,-0.061904 -0.06854,-0.064114 -0.06854,-0.1658132 0,-0.099488 0.06854,-0.1613916 0.07075,-0.064115 0.23435,-0.064115 h 0.26309 V 1.274292 h -0.26309 q -0.163603,0 -0.23435,-0.061904 -0.06854,-0.064115 -0.06854,-0.1658133 0,-0.10169877 0.06854,-0.16360239 0.07075,-0.0641145 0.23435,-0.0641145 l 0.981614,0.002211 q 0.163603,0 0.232139,0.0619036 0.07075,0.0619036 0.07075,0.16360239 0,0.1016988 -0.07075,0.1658133 -0.06854,0.061904 -0.232139,0.061904 z"
         style="fill:#93bfa5;fill-opacity:1;stroke-width:0.37731734"
         id="path22663"
         inkscape:connector-curvature="0" />
      <path
         d="M 18.604541,0.63314738 V 1.1129004 H 18.065095 V 0.63314738 Z m 0.0619,0.86001812 v 1.5542231 h 0.543867 q 0.163603,0 0.232139,0.064115 0.07075,0.061904 0.07075,0.1636024 0,0.099488 -0.07075,0.1636024 -0.06854,0.061904 -0.232139,0.061904 H 17.66935 q -0.163602,0 -0.234349,-0.061904 -0.06854,-0.064114 -0.06854,-0.1658132 0,-0.099488 0.06854,-0.1613916 0.07075,-0.064115 0.234349,-0.064115 h 0.543868 V 1.9463885 h -0.364789 q -0.161392,0 -0.232139,-0.061904 -0.07075,-0.064114 -0.07075,-0.1658133 0,-0.099488 0.06854,-0.1613916 0.07075,-0.064115 0.23435,-0.064115 z"
         style="fill:#93bfa5;fill-opacity:1;stroke-width:0.37731734"
         id="path22665"
         inkscape:connector-curvature="0" />
      <path
         d="M 21.655506,1.628027 V 1.4931655 h 0.530602 q 0.163603,0 0.232139,0.064115 0.07075,0.061904 0.07075,0.1636024 0,0.099488 -0.07075,0.1636025 -0.06854,0.061904 -0.232139,0.061904 h -0.07738 v 1.6492893 q 0,0.2387711 -0.101699,0.4156386 -0.09949,0.1790783 -0.307307,0.3073073 -0.20782,0.1282289 -0.468699,0.1282289 h -0.512916 q -0.163602,0 -0.234349,-0.064114 -0.06854,-0.061904 -0.06854,-0.1613915 0,-0.1016988 0.06854,-0.1658133 0.07075,-0.061904 0.234349,-0.061904 h 0.499651 q 0.207819,0 0.322783,-0.1127531 0.114964,-0.112753 0.114964,-0.2851988 V 3.3745935 q -0.150338,0.097277 -0.307308,0.1459156 -0.154759,0.048639 -0.318361,0.048639 -0.462066,0 -0.773795,-0.3073073 -0.311729,-0.3095181 -0.311729,-0.762741 0,-0.4554338 0.311729,-0.7627411 0.311729,-0.3095181 0.773795,-0.3095181 0.172446,0 0.327205,0.050849 0.15697,0.048639 0.298464,0.1503374 z m -0.0022,0.8688615 q 0,-0.2498253 -0.185711,-0.4333253 -0.1835,-0.1835 -0.442169,-0.1835 -0.258668,0 -0.444379,0.1835 -0.1835,0.1835 -0.1835,0.4333253 0,0.2520362 0.1835,0.4355362 0.185711,0.1812892 0.444379,0.1812892 0.258669,0 0.442169,-0.1812892 0.185711,-0.1835 0.185711,-0.4355362 z"
         style="fill:#93bfa5;fill-opacity:1;stroke-width:0.37731734"
         id="path22667"
         inkscape:connector-curvature="0" />
      <path
         d="M 23.404283,0.63314738 V 1.599286 q 0.141494,-0.084012 0.285199,-0.1238072 0.145916,-0.042006 0.294042,-0.042006 0.23435,0 0.41785,0.07959 0.1835,0.07959 0.302885,0.2520362 0.121597,0.170235 0.121597,0.4311145 v 0.8511748 q 0.172446,0 0.225506,0.033163 0.10612,0.068536 0.10612,0.1945542 0,0.099488 -0.06854,0.1636024 -0.06854,0.061904 -0.232138,0.061904 H 24.33947 q -0.161391,0 -0.232138,-0.061904 -0.06854,-0.064114 -0.06854,-0.1658132 0,-0.1238073 0.106121,-0.1923434 0.05527,-0.035374 0.225506,-0.033163 v -0.820223 q 0,-0.1746566 -0.07959,-0.2454036 -0.10391,-0.095066 -0.307308,-0.095066 -0.150337,0 -0.267512,0.059693 -0.114964,0.057482 -0.311729,0.2520362 v 0.8489639 q 0.174657,0 0.225506,0.033163 0.108332,0.068536 0.108332,0.1945542 0,0.099488 -0.07075,0.1636024 -0.06854,0.061904 -0.232139,0.061904 h -0.515126 q -0.163603,0 -0.23435,-0.061904 -0.06854,-0.064114 -0.06854,-0.1658132 0,-0.1238073 0.108331,-0.1923434 0.05306,-0.035374 0.225506,-0.033163 V 1.0863703 h -0.07738 q -0.163603,0 -0.23435,-0.061904 -0.06854,-0.0641145 -0.06854,-0.16581327 0,-0.099488 0.06854,-0.16139158 0.07075,-0.0641145 0.23435,-0.0641145 z"
         style="fill:#93bfa5;fill-opacity:1;stroke-width:0.37731734"
         id="path22669"
         inkscape:connector-curvature="0" />
      <path
         d="m 26.475143,1.9463885 v 0.9086567 q 0,0.1459157 0.05969,0.1923434 0.09286,0.072958 0.331627,0.072958 0.347102,0 0.641144,-0.1481265 0.112753,-0.057482 0.176868,-0.057482 0.08843,0 0.152548,0.066325 0.06633,0.066325 0.06633,0.1613916 0,0.088434 -0.07075,0.1525482 -0.108331,0.1039096 -0.428903,0.1923434 -0.318362,0.086223 -0.537235,0.086223 -0.422271,0 -0.634512,-0.1812892 Q 26.02192,3.2087802 26.02192,2.943479 V 1.9463885 h -0.163602 q -0.163602,0 -0.234349,-0.061904 -0.06854,-0.064114 -0.06854,-0.1658133 0,-0.099488 0.06854,-0.1613916 0.07075,-0.064115 0.234349,-0.064115 h 0.163602 v -0.409006 q 0,-0.16360245 0.0619,-0.2321386 0.06412,-0.070747 0.165813,-0.070747 0.09949,0 0.161392,0.070747 0.06411,0.0685362 0.06411,0.2321386 v 0.409006 h 0.83791 q 0.163603,0 0.232139,0.064115 0.07075,0.061904 0.07075,0.1636024 0,0.099488 -0.07075,0.1636025 -0.06854,0.061904 -0.232139,0.061904 z"
         style="fill:#93bfa5;fill-opacity:1;stroke-width:0.37731734"
         id="path22671"
         inkscape:connector-curvature="0" />
      <path
         d="M 32.506325,2.023768 Q 32.395783,1.9552319 32.274187,1.9220692 32.15259,1.8866957 32.01994,1.8866957 q -0.263091,0 -0.41785,0.086223 -0.06854,0.037584 -0.06854,0.081801 0,0.050849 0.09286,0.099488 0.07075,0.035373 0.31615,0.068536 0.451012,0.061904 0.62788,0.1238073 0.232138,0.081801 0.358156,0.2431928 0.126019,0.1613916 0.126019,0.3404699 0,0.2431928 -0.214452,0.4067952 -0.307308,0.2365603 -0.798115,0.2365603 -0.196765,0 -0.364789,-0.035373 -0.165813,-0.033163 -0.305096,-0.099488 -0.03316,0.028741 -0.07075,0.044217 -0.03758,0.015476 -0.07738,0.015476 -0.10612,0 -0.170235,-0.068536 -0.0619,-0.070747 -0.0619,-0.2343494 V 3.0429669 q 0,-0.1636024 0.0619,-0.2321386 0.06412,-0.070747 0.165813,-0.070747 0.0818,0 0.137073,0.046428 0.05527,0.044217 0.08622,0.154759 0.103909,0.088434 0.249825,0.1348615 0.145916,0.044217 0.336048,0.044217 0.311729,0 0.484175,-0.097277 0.0818,-0.048639 0.0818,-0.1016988 0,-0.088434 -0.117175,-0.1459157 -0.117174,-0.057482 -0.484174,-0.097277 -0.546079,-0.057482 -0.729579,-0.2210843 -0.1835,-0.1613916 -0.1835,-0.3979519 0,-0.2431928 0.205609,-0.4045844 0.278566,-0.2210843 0.729578,-0.2210843 0.15697,0 0.300675,0.030952 0.145915,0.028741 0.278566,0.090645 0.04201,-0.030952 0.07738,-0.046428 0.03758,-0.015476 0.06854,-0.015476 0.09286,0 0.154759,0.070747 0.0619,0.068536 0.0619,0.2321386 v 0.1105422 q 0,0.1481265 -0.03537,0.2011868 -0.07075,0.1016988 -0.192343,0.1016988 -0.0818,0 -0.143705,-0.050849 -0.0619,-0.050849 -0.07959,-0.1348615 z"
         style="fill:#93bfa5;fill-opacity:1;stroke-width:0.37731734"
         id="path22673"
         inkscape:connector-curvature="0" />
      <path
         d="M 34.263946,0.63314738 V 1.599286 q 0.141494,-0.084012 0.285199,-0.1238072 0.145916,-0.042006 0.294042,-0.042006 0.23435,0 0.41785,0.07959 0.1835,0.07959 0.302885,0.2520362 0.121597,0.170235 0.121597,0.4311145 v 0.8511748 q 0.172446,0 0.225506,0.033163 0.10612,0.068536 0.10612,0.1945542 0,0.099488 -0.06854,0.1636024 -0.06854,0.061904 -0.232138,0.061904 h -0.517338 q -0.161391,0 -0.232138,-0.061904 -0.06854,-0.064114 -0.06854,-0.1658132 0,-0.1238073 0.106121,-0.1923434 0.05527,-0.035374 0.225506,-0.033163 v -0.820223 q 0,-0.1746566 -0.07959,-0.2454036 -0.10391,-0.095066 -0.307308,-0.095066 -0.150337,0 -0.267512,0.059693 -0.114964,0.057482 -0.311729,0.2520362 v 0.8489639 q 0.174657,0 0.225506,0.033163 0.108332,0.068536 0.108332,0.1945542 0,0.099488 -0.07075,0.1636024 -0.06854,0.061904 -0.232139,0.061904 h -0.515126 q -0.163603,0 -0.23435,-0.061904 -0.06854,-0.064114 -0.06854,-0.1658132 0,-0.1238073 0.108331,-0.1923434 0.05306,-0.035374 0.225506,-0.033163 V 1.0863703 h -0.07738 q -0.163603,0 -0.23435,-0.061904 -0.06854,-0.0641145 -0.06854,-0.16581327 0,-0.099488 0.06854,-0.16139158 0.07075,-0.0641145 0.23435,-0.0641145 z"
         style="fill:#93bfa5;fill-opacity:1;stroke-width:0.37731734"
         id="path22675"
         inkscape:connector-curvature="0" />
      <path
         d="M 37.608953,0.63314738 V 1.1129004 H 37.069507 V 0.63314738 Z m 0.0619,0.86001812 v 1.5542231 h 0.543867 q 0.163603,0 0.232139,0.064115 0.07075,0.061904 0.07075,0.1636024 0,0.099488 -0.07075,0.1636024 -0.06854,0.061904 -0.232139,0.061904 h -1.540958 q -0.163602,0 -0.234349,-0.061904 -0.06854,-0.064114 -0.06854,-0.1658132 0,-0.099488 0.06854,-0.1613916 0.07075,-0.064115 0.234349,-0.064115 H 37.21763 V 1.9463885 h -0.36479 q -0.161391,0 -0.232138,-0.061904 -0.07075,-0.064114 -0.07075,-0.1658133 0,-0.099488 0.06854,-0.1613916 0.07075,-0.064115 0.234349,-0.064115 z"
         style="fill:#93bfa5;fill-opacity:1;stroke-width:0.37731734"
         id="path22677"
         inkscape:connector-curvature="0" />
      <path
         d="m 39.702622,1.4931655 v 0.1525483 q 0.123807,-0.1061205 0.271934,-0.1591808 0.150337,-0.05306 0.324994,-0.05306 0.402373,0 0.636723,0.2498253 0.185711,0.1989759 0.185711,0.5217591 v 0.8423314 q 0.143705,0 0.212241,0.064115 0.06854,0.061904 0.06854,0.1636024 0,0.099488 -0.07075,0.1636024 -0.06854,0.061904 -0.232139,0.061904 H 40.69087 q -0.163602,0 -0.234349,-0.061904 -0.06854,-0.064114 -0.06854,-0.1658132 0,-0.099488 0.06854,-0.1613916 0.06854,-0.064115 0.212241,-0.064115 V 2.1917921 q 0,-0.1481265 -0.07959,-0.2166626 -0.103909,-0.088434 -0.311729,-0.088434 -0.156969,0 -0.276355,0.061904 -0.117175,0.059693 -0.298464,0.2564579 v 0.8423314 q 0.174657,0 0.225506,0.033163 0.108331,0.066325 0.108331,0.1945542 0,0.099488 -0.07075,0.1636024 -0.06854,0.061904 -0.232139,0.061904 h -0.515127 q -0.163602,0 -0.234349,-0.061904 -0.06854,-0.064114 -0.06854,-0.1658132 0,-0.1238073 0.10612,-0.1923434 0.05306,-0.033163 0.227717,-0.033163 V 1.9463885 q -0.143705,0 -0.212241,-0.064115 -0.06854,-0.064114 -0.06854,-0.1636024 0,-0.099488 0.06854,-0.1613916 0.07075,-0.064115 0.23435,-0.064115 z"
         style="fill:#93bfa5;fill-opacity:1;stroke-width:0.37731734"
         id="path22679"
         inkscape:connector-curvature="0" />
      <path
         d="m 44.013767,2.7268163 h -1.859319 q 0.07075,0.1768675 0.249825,0.2851988 0.181289,0.1083313 0.488597,0.1083313 0.252036,0 0.669885,-0.1083313 0.172446,-0.044217 0.238771,-0.044217 0.09064,0 0.152549,0.064115 0.0619,0.064115 0.0619,0.1613916 0,0.088434 -0.06632,0.1503373 -0.08843,0.081801 -0.431115,0.1569699 -0.34268,0.072958 -0.658831,0.072958 -0.543867,0 -0.871072,-0.3073073 -0.324994,-0.3073072 -0.324994,-0.7561085 0,-0.4775422 0.351524,-0.7760061 0.353735,-0.3006747 0.81359,-0.3006747 0.276356,0 0.506283,0.097277 0.232139,0.097277 0.344892,0.2100301 0.159181,0.1636025 0.26309,0.4045844 0.07075,0.1680241 0.07075,0.3891085 z m -0.501861,-0.453223 q -0.10391,-0.1945542 -0.271934,-0.2896205 -0.168024,-0.097277 -0.400163,-0.097277 -0.229927,0 -0.397951,0.097277 -0.168024,0.095066 -0.274145,0.2896205 z"
         style="fill:#93bfa5;fill-opacity:1;stroke-width:0.37731734"
         id="path22681"
         inkscape:connector-curvature="0" />
      <path
         d="m 48.302805,1.9463885 v 1.1010001 h 0.645566 q 0.163602,0 0.232138,0.064115 0.07075,0.061904 0.07075,0.1636024 0,0.099488 -0.07075,0.1636024 -0.06854,0.061904 -0.232138,0.061904 h -1.368512 q -0.163603,0 -0.23435,-0.061904 -0.06854,-0.064114 -0.06854,-0.1658132 0,-0.099488 0.06854,-0.1613916 0.07075,-0.064115 0.23435,-0.064115 h 0.269723 V 1.9463885 h -0.216663 q -0.163602,0 -0.234349,-0.061904 -0.06854,-0.064114 -0.06854,-0.1658133 0,-0.099488 0.06854,-0.1613916 0.07075,-0.064115 0.234349,-0.064115 h 0.216663 V 1.3207197 q 0,-0.296253 0.221084,-0.49080724 0.223295,-0.19676508 0.645566,-0.19676508 0.187922,0 0.433326,0.0353735 0.247614,0.0331627 0.31615,0.0950663 0.07075,0.0619036 0.07075,0.15918074 0,0.10390958 -0.0619,0.17023498 -0.0619,0.064114 -0.152549,0.064114 -0.04201,0 -0.126018,-0.015476 -0.280777,-0.055271 -0.497439,-0.055271 -0.225506,0 -0.311729,0.068536 -0.08401,0.066325 -0.08401,0.1658132 v 0.1724458 h 0.698626 q 0.163603,0 0.232139,0.064115 0.07075,0.061904 0.07075,0.1636024 0,0.099488 -0.07075,0.1636025 -0.06854,0.061904 -0.232139,0.061904 z"
         style="fill:#93bfa5;fill-opacity:1;stroke-width:0.37731734"
         id="path22683"
         inkscape:connector-curvature="0" />
      <path
         d="m 52.198311,2.5344729 q 0,0.2608795 -0.145915,0.5062832 -0.143705,0.2431928 -0.431115,0.3891084 -0.285199,0.1437049 -0.596928,0.1437049 -0.309518,0 -0.592506,-0.141494 -0.282988,-0.1437048 -0.431114,-0.3891085 -0.148127,-0.2454036 -0.148127,-0.5129157 0,-0.2719338 0.150338,-0.5328133 0.150337,-0.2630904 0.431114,-0.4134278 0.282988,-0.1503373 0.590295,-0.1503373 0.309518,0 0.594717,0.154759 0.28741,0.1525482 0.433326,0.4134278 0.145915,0.2586687 0.145915,0.5328133 z m -0.453223,0.00221 q 0,-0.2188735 -0.15697,-0.4023735 -0.214451,-0.2476145 -0.563765,-0.2476145 -0.307307,0 -0.512915,0.1967651 -0.205609,0.1967651 -0.205609,0.4554338 0,0.212241 0.207819,0.3979518 0.20782,0.1835 0.510705,0.1835 0.305097,0 0.512916,-0.1835 0.207819,-0.1857108 0.207819,-0.4001627 z"
         style="fill:#93bfa5;fill-opacity:1;stroke-width:0.37731734"
         id="path22685"
         inkscape:connector-curvature="0" />
      <path
         d="m 53.641992,1.4931655 v 0.282988 q 0.285199,-0.2056084 0.448802,-0.2741446 0.165813,-0.068536 0.309518,-0.068536 0.221084,0 0.428903,0.1636024 0.141494,0.1105422 0.141494,0.225506 0,0.097277 -0.06854,0.1658133 -0.06632,0.066325 -0.161391,0.066325 -0.08401,0 -0.176868,-0.084012 -0.09286,-0.084012 -0.165813,-0.084012 -0.09507,0 -0.285199,0.1193856 -0.187922,0.1193855 -0.47091,0.3581566 v 0.6831507 h 0.645567 q 0.163602,0 0.232138,0.064115 0.07075,0.061904 0.07075,0.1636024 0,0.099488 -0.07075,0.1636024 -0.06854,0.061904 -0.232138,0.061904 h -1.368512 q -0.163603,0 -0.23435,-0.061904 -0.06854,-0.064114 -0.06854,-0.1658132 0,-0.099488 0.06854,-0.1613916 0.07075,-0.064115 0.23435,-0.064115 h 0.269727 v -1.101 h -0.163603 q -0.163602,0 -0.234349,-0.061904 -0.06854,-0.064114 -0.06854,-0.1658133 0,-0.099488 0.06854,-0.1613916 0.07075,-0.064115 0.234349,-0.064115 z"
         style="fill:#93bfa5;fill-opacity:1;stroke-width:0.37731734"
         id="path22687"
         inkscape:connector-curvature="0" />
      <path
         d="m 57.588349,2.7268163 h -1.85932 q 0.07075,0.1768675 0.249825,0.2851988 0.18129,0.1083313 0.488597,0.1083313 0.252036,0 0.669885,-0.1083313 0.172446,-0.044217 0.238772,-0.044217 0.09064,0 0.152548,0.064115 0.0619,0.064115 0.0619,0.1613916 0,0.088434 -0.06632,0.1503373 -0.08843,0.081801 -0.431114,0.1569699 -0.342681,0.072958 -0.658832,0.072958 -0.543867,0 -0.871072,-0.3073073 -0.324994,-0.3073072 -0.324994,-0.7561085 0,-0.4775422 0.351524,-0.7760061 0.353735,-0.3006747 0.81359,-0.3006747 0.276356,0 0.506284,0.097277 0.232138,0.097277 0.344891,0.2100301 0.159181,0.1636025 0.263091,0.4045844 0.07075,0.1680241 0.07075,0.3891085 z m -0.501862,-0.453223 q -0.10391,-0.1945542 -0.271934,-0.2896205 -0.168024,-0.097277 -0.400162,-0.097277 -0.229928,0 -0.397952,0.097277 -0.168024,0.095066 -0.274145,0.2896205 z"
         style="fill:#93bfa5;fill-opacity:1;stroke-width:0.37731734"
         id="path22689"
         inkscape:connector-curvature="0" />
      <path
         d="m 59.169098,2.9501115 0.488597,-1.003723 q -0.18129,0 -0.232139,-0.030952 -0.110542,-0.068536 -0.110542,-0.1967651 0,-0.099488 0.06854,-0.1613916 0.07075,-0.064115 0.234349,-0.064115 h 0.621248 q 0.163602,0 0.232138,0.064115 0.07075,0.061904 0.07075,0.1636024 0,0.099488 -0.07075,0.1636025 -0.06854,0.061904 -0.232138,0.061904 h -0.07517 l -0.75832,1.554223 h -0.47312 l -0.758319,-1.554223 h -0.06412 q -0.163602,0 -0.234349,-0.061904 -0.06854,-0.064114 -0.06854,-0.1658133 0,-0.099488 0.06854,-0.1613916 0.07075,-0.064115 0.234349,-0.064115 h 0.607982 q 0.161392,0 0.229928,0.064115 0.07075,0.061904 0.07075,0.1636024 0,0.1260181 -0.106121,0.1923434 -0.05306,0.033163 -0.23656,0.033163 z"
         style="fill:#93bfa5;fill-opacity:1;stroke-width:0.37731734"
         id="path22691"
         inkscape:connector-curvature="0" />
      <path
         d="m 63.018181,2.7268163 h -1.859319 q 0.07075,0.1768675 0.249825,0.2851988 0.181289,0.1083313 0.488596,0.1083313 0.252036,0 0.669886,-0.1083313 0.172446,-0.044217 0.238771,-0.044217 0.09065,0 0.152548,0.064115 0.0619,0.064115 0.0619,0.1613916 0,0.088434 -0.06632,0.1503373 -0.08843,0.081801 -0.431115,0.1569699 -0.342681,0.072958 -0.658831,0.072958 -0.543868,0 -0.871073,-0.3073073 -0.324994,-0.3073072 -0.324994,-0.7561085 0,-0.4775422 0.351524,-0.7760061 0.353735,-0.3006747 0.813591,-0.3006747 0.276355,0 0.506283,0.097277 0.232139,0.097277 0.344892,0.2100301 0.15918,0.1636025 0.26309,0.4045844 0.07075,0.1680241 0.07075,0.3891085 z M 62.51632,2.2735933 q -0.10391,-0.1945542 -0.271934,-0.2896205 -0.168024,-0.097277 -0.400163,-0.097277 -0.229928,0 -0.397952,0.097277 -0.168024,0.095066 -0.274144,0.2896205 z"
         style="fill:#93bfa5;fill-opacity:1;stroke-width:0.37731734"
         id="path22693"
         inkscape:connector-curvature="0" />
      <path
         d="m 64.501654,1.4931655 v 0.282988 q 0.285198,-0.2056084 0.448801,-0.2741446 0.165813,-0.068536 0.309518,-0.068536 0.221084,0 0.428904,0.1636024 0.141494,0.1105422 0.141494,0.225506 0,0.097277 -0.06854,0.1658133 -0.06632,0.066325 -0.161391,0.066325 -0.08401,0 -0.176868,-0.084012 -0.09286,-0.084012 -0.165813,-0.084012 -0.09507,0 -0.285199,0.1193856 -0.187921,0.1193855 -0.470909,0.3581566 v 0.6831507 h 0.645566 q 0.163602,0 0.232138,0.064115 0.07075,0.061904 0.07075,0.1636024 0,0.099488 -0.07075,0.1636024 -0.06854,0.061904 -0.232138,0.061904 h -1.368512 q -0.163603,0 -0.23435,-0.061904 -0.06854,-0.064114 -0.06854,-0.1658132 0,-0.099488 0.06854,-0.1613916 0.07075,-0.064115 0.23435,-0.064115 h 0.269723 v -1.101 h -0.163603 q -0.163602,0 -0.234349,-0.061904 -0.06854,-0.064114 -0.06854,-0.1658133 0,-0.099488 0.06854,-0.1613916 0.07075,-0.064115 0.234349,-0.064115 z"
         style="fill:#93bfa5;fill-opacity:1;stroke-width:0.37731734"
         id="path22695"
         inkscape:connector-curvature="0" />
      <path
         d="m 70.988269,1.4931655 v 1.5542231 q 0.143705,0 0.212241,0.064115 0.06854,0.064114 0.06854,0.1636024 0,0.099488 -0.07075,0.1636024 -0.06854,0.061904 -0.232138,0.061904 H 70.535046 V 3.3967019 q -0.194554,0.088434 -0.371421,0.1326506 -0.176868,0.044217 -0.336049,0.044217 -0.223295,0 -0.386897,-0.092855 Q 69.277076,3.3856485 69.18201,3.2198349 69.11347,3.1004494 69.11347,2.921371 V 1.946389 h -0.07738 q -0.163602,0 -0.234349,-0.061904 -0.06854,-0.064114 -0.06854,-0.1658133 0,-0.099488 0.06854,-0.1613916 0.07075,-0.064115 0.234349,-0.064115 h 0.530603 v 1.3486146 q 0,0.1437049 0.06854,0.212241 0.07075,0.066325 0.214452,0.066325 0.137072,0 0.294042,-0.05306 0.159181,-0.055271 0.391319,-0.1967651 V 1.9463885 h -0.163602 q -0.163603,0 -0.23435,-0.061904 -0.06854,-0.064114 -0.06854,-0.1658133 0,-0.099488 0.06854,-0.1613916 0.07075,-0.064115 0.23435,-0.064115 z"
         style="fill:#93bfa5;fill-opacity:1;stroke-width:0.37731734"
         id="path22697"
         inkscape:connector-curvature="0" />
      <path
         d="m 72.177707,3.2507862 v 0.7428435 h 0.271934 q 0.163602,0 0.232139,0.061904 0.07075,0.064115 0.07075,0.1658133 0,0.099488 -0.07075,0.1613915 -0.06854,0.064114 -0.232139,0.064114 h -0.802536 q -0.163603,0 -0.23435,-0.064114 -0.06854,-0.061904 -0.06854,-0.1613915 0,-0.1016988 0.07075,-0.1658133 0.07075,-0.061904 0.232139,-0.061904 h 0.07738 V 1.9463885 h -0.07738 q -0.163603,0 -0.23435,-0.061904 -0.06854,-0.064114 -0.06854,-0.1658133 0,-0.099488 0.06854,-0.1613916 0.07075,-0.064115 0.23435,-0.064115 h 0.530602 v 0.1547591 q 0.159181,-0.1083313 0.329416,-0.1613916 0.170235,-0.05306 0.349313,-0.05306 0.464277,0 0.791482,0.3161506 0.327205,0.3139398 0.327205,0.720735 0,0.4488013 -0.386898,0.7406326 -0.322783,0.2431928 -0.727367,0.2431928 -0.174657,0 -0.344892,-0.050849 Q 72.345731,3.352485 72.177707,3.2507862 Z M 73.5219,2.4725693 q 0,-0.095066 -0.07517,-0.240982 -0.07517,-0.1481265 -0.232138,-0.2454036 -0.154759,-0.099488 -0.364789,-0.099488 -0.338259,0 -0.537235,0.254247 -0.134862,0.1746567 -0.134862,0.3360483 0,0.1812891 0.192344,0.3537349 0.194554,0.170235 0.479753,0.170235 0.287409,0 0.479753,-0.170235 Q 73.5219,2.660491 73.5219,2.4725693 Z"
         style="fill:#93bfa5;fill-opacity:1;stroke-width:0.37731734"
         id="path22699"
         inkscape:connector-curvature="0" />
      <path
         d="m 76.632554,2.5344729 q 0,0.2608795 -0.145916,0.5062832 -0.143705,0.2431928 -0.431115,0.3891084 -0.285198,0.1437049 -0.596927,0.1437049 -0.309519,0 -0.592506,-0.141494 -0.282988,-0.1437048 -0.431115,-0.3891085 -0.148127,-0.2454036 -0.148127,-0.5129157 0,-0.2719338 0.150338,-0.5328133 0.150337,-0.2630904 0.431114,-0.4134278 0.282988,-0.1503373 0.590296,-0.1503373 0.309518,0 0.594717,0.154759 0.287409,0.1525482 0.433325,0.4134278 0.145916,0.2586687 0.145916,0.5328133 z m -0.453223,0.00221 q 0,-0.2188735 -0.15697,-0.4023735 -0.214452,-0.2476145 -0.563765,-0.2476145 -0.307308,0 -0.512916,0.1967651 -0.205609,0.1967651 -0.205609,0.4554338 0,0.212241 0.20782,0.3979518 0.207819,0.1835 0.510705,0.1835 0.305096,0 0.512915,-0.1835 0.20782,-0.1857108 0.20782,-0.4001627 z"
         style="fill:#93bfa5;fill-opacity:1;stroke-width:0.37731734"
         id="path22701"
         inkscape:connector-curvature="0" />
      <path
         d="m 77.711449,1.4931655 v 0.1525483 q 0.123808,-0.1061205 0.271934,-0.1591808 0.150337,-0.05306 0.324994,-0.05306 0.402374,0 0.636723,0.2498253 0.185711,0.1989759 0.185711,0.5217591 v 0.8423314 q 0.143705,0 0.212241,0.064115 0.06854,0.061904 0.06854,0.1636024 0,0.099488 -0.07075,0.1636024 -0.06854,0.061904 -0.232139,0.061904 h -0.409006 q -0.163602,0 -0.234349,-0.061904 -0.06854,-0.064114 -0.06854,-0.1658132 0,-0.099488 0.06854,-0.1613916 0.06854,-0.064115 0.212241,-0.064115 V 2.1917921 q 0,-0.1481265 -0.07959,-0.2166626 -0.10391,-0.088434 -0.311729,-0.088434 -0.15697,0 -0.276356,0.061904 -0.117175,0.059693 -0.298464,0.2564579 v 0.8423314 q 0.174657,0 0.225506,0.033163 0.108332,0.066325 0.108332,0.1945542 0,0.099488 -0.07075,0.1636024 -0.06854,0.061904 -0.232139,0.061904 h -0.515126 q -0.163603,0 -0.23435,-0.061904 -0.06854,-0.064114 -0.06854,-0.1658132 0,-0.1238073 0.10612,-0.1923434 0.05306,-0.033163 0.227717,-0.033163 V 1.9463885 q -0.143704,0 -0.212241,-0.064115 -0.06854,-0.064114 -0.06854,-0.1636024 0,-0.099488 0.06854,-0.1613916 0.07075,-0.064115 0.23435,-0.064115 z"
         style="fill:#93bfa5;fill-opacity:1;stroke-width:0.37731734"
         id="path22703"
         inkscape:connector-curvature="0" />
      <path
         d="m 83.346883,3.4851356 -0.78485,-1.5387471 q -0.110542,-0.013265 -0.168024,-0.075169 -0.05748,-0.061904 -0.05748,-0.1503374 0,-0.1016988 0.06854,-0.1636024 0.07075,-0.064115 0.23435,-0.064115 h 0.413427 q 0.163603,0 0.232139,0.064115 0.07075,0.061904 0.07075,0.1636024 0,0.099488 -0.07075,0.1636025 -0.06854,0.061904 -0.218874,0.061904 l 0.535025,1.0413073 0.530602,-1.0413073 q -0.145916,0 -0.216663,-0.061904 -0.06854,-0.064114 -0.06854,-0.1658133 0,-0.099488 0.06854,-0.1613916 0.07075,-0.064115 0.23435,-0.064115 h 0.426693 q 0.161391,0 0.229927,0.064115 0.07075,0.061904 0.07075,0.1636024 0,0.090645 -0.05969,0.1547591 -0.05969,0.061904 -0.176868,0.070747 L 83.60113,3.9936297 q 0.170235,0 0.223295,0.033163 0.10612,0.068536 0.10612,0.1945543 0,0.099488 -0.07075,0.1613915 -0.06854,0.064114 -0.232138,0.064114 H 82.63941 q -0.163603,0 -0.23435,-0.064114 -0.06854,-0.061904 -0.06854,-0.1613915 0,-0.1016988 0.06854,-0.1658133 0.07075,-0.061904 0.23435,-0.061904 h 0.451012 z"
         style="fill:#93bfa5;fill-opacity:1;stroke-width:0.37731734"
         id="path22705"
         inkscape:connector-curvature="0" />
      <path
         d="m 87.492218,2.5344729 q 0,0.2608795 -0.145915,0.5062832 -0.143705,0.2431928 -0.431115,0.3891084 -0.285199,0.1437049 -0.596927,0.1437049 -0.309519,0 -0.592507,-0.141494 Q 85.442766,3.2883706 85.29464,3.0429669 85.146513,2.7975633 85.146513,2.5300512 q 0,-0.2719338 0.150338,-0.5328133 0.150337,-0.2630904 0.431114,-0.4134278 0.282988,-0.1503373 0.590296,-0.1503373 0.309518,0 0.594716,0.154759 0.28741,0.1525482 0.433326,0.4134278 0.145915,0.2586687 0.145915,0.5328133 z m -0.453222,0.00221 q 0,-0.2188735 -0.15697,-0.4023735 -0.214452,-0.2476145 -0.563765,-0.2476145 -0.307308,0 -0.512916,0.1967651 -0.205609,0.1967651 -0.205609,0.4554338 0,0.212241 0.20782,0.3979518 0.207819,0.1835 0.510705,0.1835 0.305096,0 0.512915,-0.1835 0.20782,-0.1857108 0.20782,-0.4001627 z"
         style="fill:#93bfa5;fill-opacity:1;stroke-width:0.37731734"
         id="path22707"
         inkscape:connector-curvature="0" />
      <path
         d="m 89.992679,1.4931655 v 1.5542231 q 0.143705,0 0.212241,0.064115 0.06854,0.064114 0.06854,0.1636024 0,0.099488 -0.07075,0.1636024 -0.06854,0.061904 -0.232138,0.061904 H 89.539456 V 3.3967019 q -0.194554,0.088434 -0.371422,0.1326506 -0.176867,0.044217 -0.336048,0.044217 -0.223295,0 -0.386897,-0.092855 Q 88.281486,3.3856485 88.18642,3.2198349 88.11788,3.1004494 88.11788,2.921371 V 1.946389 H 88.0405 q -0.163602,0 -0.234349,-0.061904 -0.06854,-0.064114 -0.06854,-0.1658133 0,-0.099488 0.06854,-0.1613916 0.07075,-0.064115 0.234349,-0.064115 h 0.530603 v 1.3486146 q 0,0.1437049 0.06854,0.212241 0.07075,0.066325 0.214452,0.066325 0.137072,0 0.294042,-0.05306 0.159181,-0.055271 0.391319,-0.1967651 V 1.9463885 h -0.163602 q -0.163603,0 -0.23435,-0.061904 -0.06854,-0.064114 -0.06854,-0.1658133 0,-0.099488 0.06854,-0.1613916 0.07075,-0.064115 0.23435,-0.064115 z"
         style="fill:#93bfa5;fill-opacity:1;stroke-width:0.37731734"
         id="path22709"
         inkscape:connector-curvature="0" />
    </g>
    <g
       id="g22772"
       style="font-style:normal;font-variant:normal;font-weight:bold;font-stretch:normal;font-size:4.52780771px;line-height:1.25;font-family:'Courier New';-inkscape-font-specification:'Courier New Bold';letter-spacing:0px;word-spacing:0px;fill:#b9d5c4;fill-opacity:1;stroke:none;stroke-width:0.37731734"
       transform="rotate(-90,0.03023272,-0.03023272)"
       aria-label="May the Light shine forever upon you">
      <path
         inkscape:connector-curvature="0"
         id="path22712"
         style="fill:#b9d5c4;fill-opacity:1;stroke-width:0.37731734"
         d="m -6.7007753,1.6965632 v 1.3508254 h 0.1636024 q 0.1636025,0 0.2321386,0.064115 0.070747,0.061904 0.070747,0.1636024 0,0.099488 -0.070747,0.1636024 -0.068536,0.061904 -0.2321386,0.061904 h -0.5947169 q -0.1636024,0 -0.2321386,-0.061904 -0.070747,-0.064114 -0.070747,-0.1658132 0,-0.099488 0.068536,-0.1613916 0.068536,-0.064115 0.212241,-0.064115 V 1.274292 Q -7.273384,1.263238 -7.3352876,1.201334 -7.3949806,1.13943 -7.3949806,1.0465749 q 0,-0.10169877 0.068536,-0.16360239 0.070747,-0.0641145 0.2343494,-0.0641145 l 0.4974398,0.002211 0.6168254,1.36409049 0.6057711,-1.36630133 0.5018615,0.002211 q 0.1636024,0 0.2321386,0.0619036 0.070747,0.0619036 0.070747,0.16360243 0,0.092855 -0.061904,0.1547591 -0.061904,0.061904 -0.1790784,0.072958 v 1.7730966 q 0.1437049,0 0.212241,0.064115 0.068536,0.064114 0.068536,0.1636024 0,0.099488 -0.070747,0.1636024 -0.068536,0.061904 -0.2321386,0.061904 h -0.5969278 q -0.1613916,0 -0.2321386,-0.061904 -0.068536,-0.064114 -0.068536,-0.1658132 0,-0.099488 0.068536,-0.1613916 0.070747,-0.064115 0.2321386,-0.064115 h 0.1658133 V 1.6965632 l -0.5195483,1.1673254 h -0.3935301 z" />
      <path
         inkscape:connector-curvature="0"
         id="path22714"
         style="fill:#b9d5c4;fill-opacity:1;stroke-width:0.37731734"
         d="M -2.8693833,3.5006115 V 3.3944911 q -0.1702349,0.090644 -0.3758434,0.1348614 -0.2056085,0.046428 -0.3736326,0.046428 -0.3647892,0 -0.5925061,-0.1923434 -0.2277168,-0.1945542 -0.2277168,-0.4289036 0,-0.2851989 0.2896205,-0.5283917 0.2918313,-0.2454036 0.804747,-0.2454036 0.2056085,0 0.4753314,0.044217 V 2.1166234 q 0,-0.1016988 -0.088434,-0.1658132 -0.086223,-0.064115 -0.3316266,-0.064115 -0.2011867,0 -0.5217591,0.07959 -0.1193855,0.028741 -0.1857108,0.028741 -0.090645,0 -0.1547591,-0.064114 -0.061904,-0.066325 -0.061904,-0.1680241 0,-0.057482 0.022108,-0.099488 0.022108,-0.042006 0.061904,-0.066325 0.039795,-0.02653 0.1658132,-0.061904 0.1680241,-0.046428 0.3426808,-0.072958 0.1746566,-0.028741 0.3161506,-0.028741 0.4222712,0 0.6544097,0.1835 0.2343495,0.1812892 0.2343495,0.4974398 v 0.932976 h 0.07738 q 0.1636024,0 0.2321386,0.064115 0.070747,0.061904 0.070747,0.1636024 0,0.099488 -0.070747,0.1636024 -0.068536,0.061904 -0.2321386,0.061904 z m 0,-0.8113796 q -0.2719337,-0.05306 -0.5018615,-0.05306 -0.2763554,0 -0.4753314,0.1348615 -0.1238072,0.086223 -0.1238072,0.1746566 0,0.064115 0.059693,0.1039096 0.1105422,0.072958 0.3028855,0.072958 0.1636025,0 0.3692109,-0.064115 0.2078193,-0.064114 0.3692109,-0.1746566 z" />
      <path
         inkscape:connector-curvature="0"
         id="path22716"
         style="fill:#b9d5c4;fill-opacity:1;stroke-width:0.37731734"
         d="M -0.81550953,3.4851356 -1.600359,1.9463885 q -0.1105422,-0.013265 -0.1680241,-0.075169 -0.057482,-0.061904 -0.057482,-0.1503374 0,-0.1016988 0.068536,-0.1636024 0.070747,-0.064115 0.2343494,-0.064115 h 0.4134278 q 0.16360239,0 0.23213854,0.064115 0.070747,0.061904 0.070747,0.1636024 0,0.099488 -0.070747,0.1636025 -0.0685362,0.061904 -0.21887354,0.061904 l 0.53502418,1.0413073 0.53060247,-1.0413073 q -0.14591568,0 -0.21666268,-0.061904 -0.0685362,-0.064114 -0.0685362,-0.1658133 0,-0.099488 0.0685362,-0.1613916 0.070747,-0.064115 0.23434943,-0.064115 h 0.42669281 q 0.16139159,0 0.22992774,0.064115 0.070747,0.061904 0.070747,0.1636024 0,0.090645 -0.0596928,0.1547591 -0.0596928,0.061904 -0.17686749,0.070747 l -1.0390965,2.0472412 q 0.17023496,0 0.22329521,0.033163 0.10612049,0.068536 0.10612049,0.1945543 0,0.099488 -0.070747,0.1613915 -0.0685361,0.064114 -0.23213858,0.064114 H -1.5229797 q -0.1636024,0 -0.2343494,-0.064114 -0.068536,-0.061904 -0.068536,-0.1613915 0,-0.1016988 0.068536,-0.1658133 0.070747,-0.061904 0.2343494,-0.061904 h 0.4510121 z" />
      <path
         inkscape:connector-curvature="0"
         id="path22718"
         style="fill:#b9d5c4;fill-opacity:1;stroke-width:0.37731734"
         d="m 4.7558164,1.9463885 v 0.9086567 q 0,0.1459157 0.059693,0.1923434 0.092855,0.072958 0.3316266,0.072958 0.3471024,0 0.6411446,-0.1481265 0.112753,-0.057482 0.1768675,-0.057482 0.088434,0 0.1525482,0.066325 0.066325,0.066325 0.066325,0.1613916 0,0.088434 -0.070747,0.1525482 -0.1083313,0.1039096 -0.4289036,0.1923434 -0.3183615,0.086223 -0.537235,0.086223 -0.4222712,0 -0.6345122,-0.1812892 -0.21003,-0.1834999 -0.21003,-0.4488011 V 1.9463885 H 4.1389911 q -0.1636025,0 -0.2343495,-0.061904 -0.068536,-0.064114 -0.068536,-0.1658133 0,-0.099488 0.068536,-0.1613916 0.070747,-0.064115 0.2343495,-0.064115 h 0.1636024 v -0.409006 q 0,-0.16360245 0.061904,-0.2321386 0.064114,-0.070747 0.1658133,-0.070747 0.099488,0 0.1613916,0.070747 0.064114,0.0685362 0.064114,0.2321386 v 0.409006 h 0.8379098 q 0.1636024,0 0.2321385,0.064115 0.070747,0.061904 0.070747,0.1636024 0,0.099488 -0.070747,0.1636025 -0.068536,0.061904 -0.2321385,0.061904 z" />
      <path
         inkscape:connector-curvature="0"
         id="path22720"
         style="fill:#b9d5c4;fill-opacity:1;stroke-width:0.37731734"
         d="M 7.1147868,0.63314738 V 1.599286 q 0.141494,-0.084012 0.2851989,-0.1238072 0.1459157,-0.042006 0.2940422,-0.042006 0.2343494,0 0.4178494,0.07959 0.1835,0.07959 0.3028856,0.2520362 0.1215964,0.170235 0.1215964,0.4311145 v 0.8511748 q 0.1724458,0 0.225506,0.033163 0.1061205,0.068536 0.1061205,0.1945542 0,0.099488 -0.068536,0.1636024 -0.068536,0.061904 -0.2321386,0.061904 H 8.0499737 q -0.1613916,0 -0.2321386,-0.061904 -0.068536,-0.064114 -0.068536,-0.1658132 0,-0.1238073 0.1061205,-0.1923434 0.055271,-0.035374 0.225506,-0.033163 v -0.820223 q 0,-0.1746566 -0.07959,-0.2454036 -0.1039096,-0.095066 -0.3073072,-0.095066 -0.1503374,0 -0.2675121,0.059693 -0.1149639,0.057482 -0.311729,0.2520362 v 0.8489639 q 0.1746567,0 0.2255061,0.033163 0.1083313,0.068536 0.1083313,0.1945542 0,0.099488 -0.070747,0.1636024 -0.068536,0.061904 -0.2321385,0.061904 H 6.6306121 q -0.1636024,0 -0.2343494,-0.061904 -0.068536,-0.064114 -0.068536,-0.1658132 0,-0.1238073 0.1083314,-0.1923434 0.05306,-0.035374 0.225506,-0.033163 V 1.0863703 h -0.07738 q -0.1636024,0 -0.2343494,-0.061904 -0.068536,-0.0641145 -0.068536,-0.16581327 0,-0.099488 0.068536,-0.16139158 0.070747,-0.0641145 0.2343494,-0.0641145 z" />
      <path
         inkscape:connector-curvature="0"
         id="path22722"
         style="fill:#b9d5c4;fill-opacity:1;stroke-width:0.37731734"
         d="M 11.434775,2.7268163 H 9.5754551 q 0.070747,0.1768675 0.2498253,0.2851988 0.1812896,0.1083313 0.4885966,0.1083313 0.252036,0 0.669885,-0.1083313 0.172446,-0.044217 0.238772,-0.044217 0.09064,0 0.152548,0.064115 0.0619,0.064115 0.0619,0.1613916 0,0.088434 -0.06632,0.1503373 -0.08843,0.081801 -0.431114,0.1569699 -0.342681,0.072958 -0.658832,0.072958 -0.5438673,0 -0.8710722,-0.3073073 -0.324994,-0.3073072 -0.324994,-0.7561085 0,-0.4775422 0.3515242,-0.7760061 0.3537349,-0.3006747 0.81359,-0.3006747 0.276356,0 0.506284,0.097277 0.232138,0.097277 0.344891,0.2100301 0.159181,0.1636025 0.263091,0.4045844 0.07075,0.1680241 0.07075,0.3891085 z m -0.501862,-0.453223 q -0.10391,-0.1945542 -0.271934,-0.2896205 -0.168024,-0.097277 -0.400162,-0.097277 -0.229928,0 -0.3979522,0.097277 -0.1680241,0.095066 -0.2741446,0.2896205 z" />
      <path
         inkscape:connector-curvature="0"
         id="path22724"
         style="fill:#b9d5c4;fill-opacity:1;stroke-width:0.37731734"
         d="m 15.538101,1.274292 v 1.7730966 h 0.977193 V 2.6184849 q 0,-0.1636024 0.0619,-0.2321385 0.06411,-0.070747 0.165814,-0.070747 0.09949,0 0.161391,0.070747 0.06411,0.068536 0.06411,0.2321385 V 3.5006115 H 14.82178 q -0.163603,0 -0.23435,-0.061904 -0.06854,-0.064114 -0.06854,-0.1658132 0,-0.099488 0.06854,-0.1613916 0.07075,-0.064115 0.23435,-0.064115 h 0.26309 V 1.274292 h -0.26309 q -0.163603,0 -0.23435,-0.061904 -0.06854,-0.064115 -0.06854,-0.1658133 0,-0.10169877 0.06854,-0.16360239 0.07075,-0.0641145 0.23435,-0.0641145 l 0.981614,0.002211 q 0.163603,0 0.232139,0.0619036 0.07075,0.0619036 0.07075,0.16360239 0,0.1016988 -0.07075,0.1658133 -0.06854,0.061904 -0.232139,0.061904 z" />
      <path
         inkscape:connector-curvature="0"
         id="path22726"
         style="fill:#b9d5c4;fill-opacity:1;stroke-width:0.37731734"
         d="M 18.604541,0.63314738 V 1.1129004 H 18.065095 V 0.63314738 Z m 0.0619,0.86001812 v 1.5542231 h 0.543867 q 0.163603,0 0.232139,0.064115 0.07075,0.061904 0.07075,0.1636024 0,0.099488 -0.07075,0.1636024 -0.06854,0.061904 -0.232139,0.061904 H 17.66935 q -0.163602,0 -0.234349,-0.061904 -0.06854,-0.064114 -0.06854,-0.1658132 0,-0.099488 0.06854,-0.1613916 0.07075,-0.064115 0.234349,-0.064115 h 0.543868 V 1.9463885 h -0.364789 q -0.161392,0 -0.232139,-0.061904 -0.07075,-0.064114 -0.07075,-0.1658133 0,-0.099488 0.06854,-0.1613916 0.07075,-0.064115 0.23435,-0.064115 z" />
      <path
         inkscape:connector-curvature="0"
         id="path22728"
         style="fill:#b9d5c4;fill-opacity:1;stroke-width:0.37731734"
         d="M 21.655506,1.628027 V 1.4931655 h 0.530602 q 0.163603,0 0.232139,0.064115 0.07075,0.061904 0.07075,0.1636024 0,0.099488 -0.07075,0.1636025 -0.06854,0.061904 -0.232139,0.061904 h -0.07738 v 1.6492893 q 0,0.2387711 -0.101699,0.4156386 -0.09949,0.1790783 -0.307307,0.3073073 -0.20782,0.1282289 -0.468699,0.1282289 h -0.512916 q -0.163602,0 -0.234349,-0.064114 -0.06854,-0.061904 -0.06854,-0.1613915 0,-0.1016988 0.06854,-0.1658133 0.07075,-0.061904 0.234349,-0.061904 h 0.499651 q 0.207819,0 0.322783,-0.1127531 0.114964,-0.112753 0.114964,-0.2851988 V 3.3745935 q -0.150338,0.097277 -0.307308,0.1459156 -0.154759,0.048639 -0.318361,0.048639 -0.462066,0 -0.773795,-0.3073073 -0.311729,-0.3095181 -0.311729,-0.762741 0,-0.4554338 0.311729,-0.7627411 0.311729,-0.3095181 0.773795,-0.3095181 0.172446,0 0.327205,0.050849 0.15697,0.048639 0.298464,0.1503374 z m -0.0022,0.8688615 q 0,-0.2498253 -0.185711,-0.4333253 -0.1835,-0.1835 -0.442169,-0.1835 -0.258668,0 -0.444379,0.1835 -0.1835,0.1835 -0.1835,0.4333253 0,0.2520362 0.1835,0.4355362 0.185711,0.1812892 0.444379,0.1812892 0.258669,0 0.442169,-0.1812892 0.185711,-0.1835 0.185711,-0.4355362 z" />
      <path
         inkscape:connector-curvature="0"
         id="path22730"
         style="fill:#b9d5c4;fill-opacity:1;stroke-width:0.37731734"
         d="M 23.404283,0.63314738 V 1.599286 q 0.141494,-0.084012 0.285199,-0.1238072 0.145916,-0.042006 0.294042,-0.042006 0.23435,0 0.41785,0.07959 0.1835,0.07959 0.302885,0.2520362 0.121597,0.170235 0.121597,0.4311145 v 0.8511748 q 0.172446,0 0.225506,0.033163 0.10612,0.068536 0.10612,0.1945542 0,0.099488 -0.06854,0.1636024 -0.06854,0.061904 -0.232138,0.061904 H 24.33947 q -0.161391,0 -0.232138,-0.061904 -0.06854,-0.064114 -0.06854,-0.1658132 0,-0.1238073 0.106121,-0.1923434 0.05527,-0.035374 0.225506,-0.033163 v -0.820223 q 0,-0.1746566 -0.07959,-0.2454036 -0.10391,-0.095066 -0.307308,-0.095066 -0.150337,0 -0.267512,0.059693 -0.114964,0.057482 -0.311729,0.2520362 v 0.8489639 q 0.174657,0 0.225506,0.033163 0.108332,0.068536 0.108332,0.1945542 0,0.099488 -0.07075,0.1636024 -0.06854,0.061904 -0.232139,0.061904 h -0.515126 q -0.163603,0 -0.23435,-0.061904 -0.06854,-0.064114 -0.06854,-0.1658132 0,-0.1238073 0.108331,-0.1923434 0.05306,-0.035374 0.225506,-0.033163 V 1.0863703 h -0.07738 q -0.163603,0 -0.23435,-0.061904 -0.06854,-0.0641145 -0.06854,-0.16581327 0,-0.099488 0.06854,-0.16139158 0.07075,-0.0641145 0.23435,-0.0641145 z" />
      <path
         inkscape:connector-curvature="0"
         id="path22732"
         style="fill:#b9d5c4;fill-opacity:1;stroke-width:0.37731734"
         d="m 26.475143,1.9463885 v 0.9086567 q 0,0.1459157 0.05969,0.1923434 0.09286,0.072958 0.331627,0.072958 0.347102,0 0.641144,-0.1481265 0.112753,-0.057482 0.176868,-0.057482 0.08843,0 0.152548,0.066325 0.06633,0.066325 0.06633,0.1613916 0,0.088434 -0.07075,0.1525482 -0.108331,0.1039096 -0.428903,0.1923434 -0.318362,0.086223 -0.537235,0.086223 -0.422271,0 -0.634512,-0.1812892 Q 26.02192,3.2087802 26.02192,2.943479 V 1.9463885 h -0.163602 q -0.163602,0 -0.234349,-0.061904 -0.06854,-0.064114 -0.06854,-0.1658133 0,-0.099488 0.06854,-0.1613916 0.07075,-0.064115 0.234349,-0.064115 h 0.163602 v -0.409006 q 0,-0.16360245 0.0619,-0.2321386 0.06412,-0.070747 0.165813,-0.070747 0.09949,0 0.161392,0.070747 0.06411,0.0685362 0.06411,0.2321386 v 0.409006 h 0.83791 q 0.163603,0 0.232139,0.064115 0.07075,0.061904 0.07075,0.1636024 0,0.099488 -0.07075,0.1636025 -0.06854,0.061904 -0.232139,0.061904 z" />
      <path
         inkscape:connector-curvature="0"
         id="path22734"
         style="fill:#b9d5c4;fill-opacity:1;stroke-width:0.37731734"
         d="M 32.506325,2.023768 Q 32.395783,1.9552319 32.274187,1.9220692 32.15259,1.8866957 32.01994,1.8866957 q -0.263091,0 -0.41785,0.086223 -0.06854,0.037584 -0.06854,0.081801 0,0.050849 0.09286,0.099488 0.07075,0.035373 0.31615,0.068536 0.451012,0.061904 0.62788,0.1238073 0.232138,0.081801 0.358156,0.2431928 0.126019,0.1613916 0.126019,0.3404699 0,0.2431928 -0.214452,0.4067952 -0.307308,0.2365603 -0.798115,0.2365603 -0.196765,0 -0.364789,-0.035373 -0.165813,-0.033163 -0.305096,-0.099488 -0.03316,0.028741 -0.07075,0.044217 -0.03758,0.015476 -0.07738,0.015476 -0.10612,0 -0.170235,-0.068536 -0.0619,-0.070747 -0.0619,-0.2343494 V 3.0429669 q 0,-0.1636024 0.0619,-0.2321386 0.06412,-0.070747 0.165813,-0.070747 0.0818,0 0.137073,0.046428 0.05527,0.044217 0.08622,0.154759 0.103909,0.088434 0.249825,0.1348615 0.145916,0.044217 0.336048,0.044217 0.311729,0 0.484175,-0.097277 0.0818,-0.048639 0.0818,-0.1016988 0,-0.088434 -0.117175,-0.1459157 -0.117174,-0.057482 -0.484174,-0.097277 -0.546079,-0.057482 -0.729579,-0.2210843 -0.1835,-0.1613916 -0.1835,-0.3979519 0,-0.2431928 0.205609,-0.4045844 0.278566,-0.2210843 0.729578,-0.2210843 0.15697,0 0.300675,0.030952 0.145915,0.028741 0.278566,0.090645 0.04201,-0.030952 0.07738,-0.046428 0.03758,-0.015476 0.06854,-0.015476 0.09286,0 0.154759,0.070747 0.0619,0.068536 0.0619,0.2321386 v 0.1105422 q 0,0.1481265 -0.03537,0.2011868 -0.07075,0.1016988 -0.192343,0.1016988 -0.0818,0 -0.143705,-0.050849 -0.0619,-0.050849 -0.07959,-0.1348615 z" />
      <path
         inkscape:connector-curvature="0"
         id="path22736"
         style="fill:#b9d5c4;fill-opacity:1;stroke-width:0.37731734"
         d="M 34.263946,0.63314738 V 1.599286 q 0.141494,-0.084012 0.285199,-0.1238072 0.145916,-0.042006 0.294042,-0.042006 0.23435,0 0.41785,0.07959 0.1835,0.07959 0.302885,0.2520362 0.121597,0.170235 0.121597,0.4311145 v 0.8511748 q 0.172446,0 0.225506,0.033163 0.10612,0.068536 0.10612,0.1945542 0,0.099488 -0.06854,0.1636024 -0.06854,0.061904 -0.232138,0.061904 h -0.517338 q -0.161391,0 -0.232138,-0.061904 -0.06854,-0.064114 -0.06854,-0.1658132 0,-0.1238073 0.106121,-0.1923434 0.05527,-0.035374 0.225506,-0.033163 v -0.820223 q 0,-0.1746566 -0.07959,-0.2454036 -0.10391,-0.095066 -0.307308,-0.095066 -0.150337,0 -0.267512,0.059693 -0.114964,0.057482 -0.311729,0.2520362 v 0.8489639 q 0.174657,0 0.225506,0.033163 0.108332,0.068536 0.108332,0.1945542 0,0.099488 -0.07075,0.1636024 -0.06854,0.061904 -0.232139,0.061904 h -0.515126 q -0.163603,0 -0.23435,-0.061904 -0.06854,-0.064114 -0.06854,-0.1658132 0,-0.1238073 0.108331,-0.1923434 0.05306,-0.035374 0.225506,-0.033163 V 1.0863703 h -0.07738 q -0.163603,0 -0.23435,-0.061904 -0.06854,-0.0641145 -0.06854,-0.16581327 0,-0.099488 0.06854,-0.16139158 0.07075,-0.0641145 0.23435,-0.0641145 z" />
      <path
         inkscape:connector-curvature="0"
         id="path22738"
         style="fill:#b9d5c4;fill-opacity:1;stroke-width:0.37731734"
         d="M 37.608953,0.63314738 V 1.1129004 H 37.069507 V 0.63314738 Z m 0.0619,0.86001812 v 1.5542231 h 0.543867 q 0.163603,0 0.232139,0.064115 0.07075,0.061904 0.07075,0.1636024 0,0.099488 -0.07075,0.1636024 -0.06854,0.061904 -0.232139,0.061904 h -1.540958 q -0.163602,0 -0.234349,-0.061904 -0.06854,-0.064114 -0.06854,-0.1658132 0,-0.099488 0.06854,-0.1613916 0.07075,-0.064115 0.234349,-0.064115 H 37.21763 V 1.9463885 h -0.36479 q -0.161391,0 -0.232138,-0.061904 -0.07075,-0.064114 -0.07075,-0.1658133 0,-0.099488 0.06854,-0.1613916 0.07075,-0.064115 0.234349,-0.064115 z" />
      <path
         inkscape:connector-curvature="0"
         id="path22740"
         style="fill:#b9d5c4;fill-opacity:1;stroke-width:0.37731734"
         d="m 39.702622,1.4931655 v 0.1525483 q 0.123807,-0.1061205 0.271934,-0.1591808 0.150337,-0.05306 0.324994,-0.05306 0.402373,0 0.636723,0.2498253 0.185711,0.1989759 0.185711,0.5217591 v 0.8423314 q 0.143705,0 0.212241,0.064115 0.06854,0.061904 0.06854,0.1636024 0,0.099488 -0.07075,0.1636024 -0.06854,0.061904 -0.232139,0.061904 H 40.69087 q -0.163602,0 -0.234349,-0.061904 -0.06854,-0.064114 -0.06854,-0.1658132 0,-0.099488 0.06854,-0.1613916 0.06854,-0.064115 0.212241,-0.064115 V 2.1917921 q 0,-0.1481265 -0.07959,-0.2166626 -0.103909,-0.088434 -0.311729,-0.088434 -0.156969,0 -0.276355,0.061904 -0.117175,0.059693 -0.298464,0.2564579 v 0.8423314 q 0.174657,0 0.225506,0.033163 0.108331,0.066325 0.108331,0.1945542 0,0.099488 -0.07075,0.1636024 -0.06854,0.061904 -0.232139,0.061904 h -0.515127 q -0.163602,0 -0.234349,-0.061904 -0.06854,-0.064114 -0.06854,-0.1658132 0,-0.1238073 0.10612,-0.1923434 0.05306,-0.033163 0.227717,-0.033163 V 1.9463885 q -0.143705,0 -0.212241,-0.064115 -0.06854,-0.064114 -0.06854,-0.1636024 0,-0.099488 0.06854,-0.1613916 0.07075,-0.064115 0.23435,-0.064115 z" />
      <path
         inkscape:connector-curvature="0"
         id="path22742"
         style="fill:#b9d5c4;fill-opacity:1;stroke-width:0.37731734"
         d="m 44.013767,2.7268163 h -1.859319 q 0.07075,0.1768675 0.249825,0.2851988 0.181289,0.1083313 0.488597,0.1083313 0.252036,0 0.669885,-0.1083313 0.172446,-0.044217 0.238771,-0.044217 0.09064,0 0.152549,0.064115 0.0619,0.064115 0.0619,0.1613916 0,0.088434 -0.06632,0.1503373 -0.08843,0.081801 -0.431115,0.1569699 -0.34268,0.072958 -0.658831,0.072958 -0.543867,0 -0.871072,-0.3073073 -0.324994,-0.3073072 -0.324994,-0.7561085 0,-0.4775422 0.351524,-0.7760061 0.353735,-0.3006747 0.81359,-0.3006747 0.276356,0 0.506283,0.097277 0.232139,0.097277 0.344892,0.2100301 0.159181,0.1636025 0.26309,0.4045844 0.07075,0.1680241 0.07075,0.3891085 z m -0.501861,-0.453223 q -0.10391,-0.1945542 -0.271934,-0.2896205 -0.168024,-0.097277 -0.400163,-0.097277 -0.229927,0 -0.397951,0.097277 -0.168024,0.095066 -0.274145,0.2896205 z" />
      <path
         inkscape:connector-curvature="0"
         id="path22744"
         style="fill:#b9d5c4;fill-opacity:1;stroke-width:0.37731734"
         d="m 48.302805,1.9463885 v 1.1010001 h 0.645566 q 0.163602,0 0.232138,0.064115 0.07075,0.061904 0.07075,0.1636024 0,0.099488 -0.07075,0.1636024 -0.06854,0.061904 -0.232138,0.061904 h -1.368512 q -0.163603,0 -0.23435,-0.061904 -0.06854,-0.064114 -0.06854,-0.1658132 0,-0.099488 0.06854,-0.1613916 0.07075,-0.064115 0.23435,-0.064115 h 0.269723 V 1.9463885 h -0.216663 q -0.163602,0 -0.234349,-0.061904 -0.06854,-0.064114 -0.06854,-0.1658133 0,-0.099488 0.06854,-0.1613916 0.07075,-0.064115 0.234349,-0.064115 h 0.216663 V 1.3207197 q 0,-0.296253 0.221084,-0.49080724 0.223295,-0.19676508 0.645566,-0.19676508 0.187922,0 0.433326,0.0353735 0.247614,0.0331627 0.31615,0.0950663 0.07075,0.0619036 0.07075,0.15918074 0,0.10390958 -0.0619,0.17023498 -0.0619,0.064114 -0.152549,0.064114 -0.04201,0 -0.126018,-0.015476 -0.280777,-0.055271 -0.497439,-0.055271 -0.225506,0 -0.311729,0.068536 -0.08401,0.066325 -0.08401,0.1658132 v 0.1724458 h 0.698626 q 0.163603,0 0.232139,0.064115 0.07075,0.061904 0.07075,0.1636024 0,0.099488 -0.07075,0.1636025 -0.06854,0.061904 -0.232139,0.061904 z" />
      <path
         inkscape:connector-curvature="0"
         id="path22746"
         style="fill:#b9d5c4;fill-opacity:1;stroke-width:0.37731734"
         d="m 52.198311,2.5344729 q 0,0.2608795 -0.145915,0.5062832 -0.143705,0.2431928 -0.431115,0.3891084 -0.285199,0.1437049 -0.596928,0.1437049 -0.309518,0 -0.592506,-0.141494 -0.282988,-0.1437048 -0.431114,-0.3891085 -0.148127,-0.2454036 -0.148127,-0.5129157 0,-0.2719338 0.150338,-0.5328133 0.150337,-0.2630904 0.431114,-0.4134278 0.282988,-0.1503373 0.590295,-0.1503373 0.309518,0 0.594717,0.154759 0.28741,0.1525482 0.433326,0.4134278 0.145915,0.2586687 0.145915,0.5328133 z m -0.453223,0.00221 q 0,-0.2188735 -0.15697,-0.4023735 -0.214451,-0.2476145 -0.563765,-0.2476145 -0.307307,0 -0.512915,0.1967651 -0.205609,0.1967651 -0.205609,0.4554338 0,0.212241 0.207819,0.3979518 0.20782,0.1835 0.510705,0.1835 0.305097,0 0.512916,-0.1835 0.207819,-0.1857108 0.207819,-0.4001627 z" />
      <path
         inkscape:connector-curvature="0"
         id="path22748"
         style="fill:#b9d5c4;fill-opacity:1;stroke-width:0.37731734"
         d="m 53.641992,1.4931655 v 0.282988 q 0.285199,-0.2056084 0.448802,-0.2741446 0.165813,-0.068536 0.309518,-0.068536 0.221084,0 0.428903,0.1636024 0.141494,0.1105422 0.141494,0.225506 0,0.097277 -0.06854,0.1658133 -0.06632,0.066325 -0.161391,0.066325 -0.08401,0 -0.176868,-0.084012 -0.09286,-0.084012 -0.165813,-0.084012 -0.09507,0 -0.285199,0.1193856 -0.187922,0.1193855 -0.47091,0.3581566 v 0.6831507 h 0.645567 q 0.163602,0 0.232138,0.064115 0.07075,0.061904 0.07075,0.1636024 0,0.099488 -0.07075,0.1636024 -0.06854,0.061904 -0.232138,0.061904 h -1.368512 q -0.163603,0 -0.23435,-0.061904 -0.06854,-0.064114 -0.06854,-0.1658132 0,-0.099488 0.06854,-0.1613916 0.07075,-0.064115 0.23435,-0.064115 h 0.269727 v -1.101 h -0.163603 q -0.163602,0 -0.234349,-0.061904 -0.06854,-0.064114 -0.06854,-0.1658133 0,-0.099488 0.06854,-0.1613916 0.07075,-0.064115 0.234349,-0.064115 z" />
      <path
         inkscape:connector-curvature="0"
         id="path22750"
         style="fill:#b9d5c4;fill-opacity:1;stroke-width:0.37731734"
         d="m 57.588349,2.7268163 h -1.85932 q 0.07075,0.1768675 0.249825,0.2851988 0.18129,0.1083313 0.488597,0.1083313 0.252036,0 0.669885,-0.1083313 0.172446,-0.044217 0.238772,-0.044217 0.09064,0 0.152548,0.064115 0.0619,0.064115 0.0619,0.1613916 0,0.088434 -0.06632,0.1503373 -0.08843,0.081801 -0.431114,0.1569699 -0.342681,0.072958 -0.658832,0.072958 -0.543867,0 -0.871072,-0.3073073 -0.324994,-0.3073072 -0.324994,-0.7561085 0,-0.4775422 0.351524,-0.7760061 0.353735,-0.3006747 0.81359,-0.3006747 0.276356,0 0.506284,0.097277 0.232138,0.097277 0.344891,0.2100301 0.159181,0.1636025 0.263091,0.4045844 0.07075,0.1680241 0.07075,0.3891085 z m -0.501862,-0.453223 q -0.10391,-0.1945542 -0.271934,-0.2896205 -0.168024,-0.097277 -0.400162,-0.097277 -0.229928,0 -0.397952,0.097277 -0.168024,0.095066 -0.274145,0.2896205 z" />
      <path
         inkscape:connector-curvature="0"
         id="path22752"
         style="fill:#b9d5c4;fill-opacity:1;stroke-width:0.37731734"
         d="m 59.169098,2.9501115 0.488597,-1.003723 q -0.18129,0 -0.232139,-0.030952 -0.110542,-0.068536 -0.110542,-0.1967651 0,-0.099488 0.06854,-0.1613916 0.07075,-0.064115 0.234349,-0.064115 h 0.621248 q 0.163602,0 0.232138,0.064115 0.07075,0.061904 0.07075,0.1636024 0,0.099488 -0.07075,0.1636025 -0.06854,0.061904 -0.232138,0.061904 h -0.07517 l -0.75832,1.554223 h -0.47312 l -0.758319,-1.554223 h -0.06412 q -0.163602,0 -0.234349,-0.061904 -0.06854,-0.064114 -0.06854,-0.1658133 0,-0.099488 0.06854,-0.1613916 0.07075,-0.064115 0.234349,-0.064115 h 0.607982 q 0.161392,0 0.229928,0.064115 0.07075,0.061904 0.07075,0.1636024 0,0.1260181 -0.106121,0.1923434 -0.05306,0.033163 -0.23656,0.033163 z" />
      <path
         inkscape:connector-curvature="0"
         id="path22754"
         style="fill:#b9d5c4;fill-opacity:1;stroke-width:0.37731734"
         d="m 63.018181,2.7268163 h -1.859319 q 0.07075,0.1768675 0.249825,0.2851988 0.181289,0.1083313 0.488596,0.1083313 0.252036,0 0.669886,-0.1083313 0.172446,-0.044217 0.238771,-0.044217 0.09065,0 0.152548,0.064115 0.0619,0.064115 0.0619,0.1613916 0,0.088434 -0.06632,0.1503373 -0.08843,0.081801 -0.431115,0.1569699 -0.342681,0.072958 -0.658831,0.072958 -0.543868,0 -0.871073,-0.3073073 -0.324994,-0.3073072 -0.324994,-0.7561085 0,-0.4775422 0.351524,-0.7760061 0.353735,-0.3006747 0.813591,-0.3006747 0.276355,0 0.506283,0.097277 0.232139,0.097277 0.344892,0.2100301 0.15918,0.1636025 0.26309,0.4045844 0.07075,0.1680241 0.07075,0.3891085 z M 62.51632,2.2735933 q -0.10391,-0.1945542 -0.271934,-0.2896205 -0.168024,-0.097277 -0.400163,-0.097277 -0.229928,0 -0.397952,0.097277 -0.168024,0.095066 -0.274144,0.2896205 z" />
      <path
         inkscape:connector-curvature="0"
         id="path22756"
         style="fill:#b9d5c4;fill-opacity:1;stroke-width:0.37731734"
         d="m 64.501654,1.4931655 v 0.282988 q 0.285198,-0.2056084 0.448801,-0.2741446 0.165813,-0.068536 0.309518,-0.068536 0.221084,0 0.428904,0.1636024 0.141494,0.1105422 0.141494,0.225506 0,0.097277 -0.06854,0.1658133 -0.06632,0.066325 -0.161391,0.066325 -0.08401,0 -0.176868,-0.084012 -0.09286,-0.084012 -0.165813,-0.084012 -0.09507,0 -0.285199,0.1193856 -0.187921,0.1193855 -0.470909,0.3581566 v 0.6831507 h 0.645566 q 0.163602,0 0.232138,0.064115 0.07075,0.061904 0.07075,0.1636024 0,0.099488 -0.07075,0.1636024 -0.06854,0.061904 -0.232138,0.061904 h -1.368512 q -0.163603,0 -0.23435,-0.061904 -0.06854,-0.064114 -0.06854,-0.1658132 0,-0.099488 0.06854,-0.1613916 0.07075,-0.064115 0.23435,-0.064115 h 0.269723 v -1.101 h -0.163603 q -0.163602,0 -0.234349,-0.061904 -0.06854,-0.064114 -0.06854,-0.1658133 0,-0.099488 0.06854,-0.1613916 0.07075,-0.064115 0.234349,-0.064115 z" />
      <path
         inkscape:connector-curvature="0"
         id="path22758"
         style="fill:#b9d5c4;fill-opacity:1;stroke-width:0.37731734"
         d="m 70.988269,1.4931655 v 1.5542231 q 0.143705,0 0.212241,0.064115 0.06854,0.064114 0.06854,0.1636024 0,0.099488 -0.07075,0.1636024 -0.06854,0.061904 -0.232138,0.061904 H 70.535046 V 3.3967019 q -0.194554,0.088434 -0.371421,0.1326506 -0.176868,0.044217 -0.336049,0.044217 -0.223295,0 -0.386897,-0.092855 Q 69.277076,3.3856485 69.18201,3.2198349 69.11347,3.1004494 69.11347,2.921371 V 1.946389 h -0.07738 q -0.163602,0 -0.234349,-0.061904 -0.06854,-0.064114 -0.06854,-0.1658133 0,-0.099488 0.06854,-0.1613916 0.07075,-0.064115 0.234349,-0.064115 h 0.530603 v 1.3486146 q 0,0.1437049 0.06854,0.212241 0.07075,0.066325 0.214452,0.066325 0.137072,0 0.294042,-0.05306 0.159181,-0.055271 0.391319,-0.1967651 V 1.9463885 h -0.163602 q -0.163603,0 -0.23435,-0.061904 -0.06854,-0.064114 -0.06854,-0.1658133 0,-0.099488 0.06854,-0.1613916 0.07075,-0.064115 0.23435,-0.064115 z" />
      <path
         inkscape:connector-curvature="0"
         id="path22760"
         style="fill:#b9d5c4;fill-opacity:1;stroke-width:0.37731734"
         d="m 72.177707,3.2507862 v 0.7428435 h 0.271934 q 0.163602,0 0.232139,0.061904 0.07075,0.064115 0.07075,0.1658133 0,0.099488 -0.07075,0.1613915 -0.06854,0.064114 -0.232139,0.064114 h -0.802536 q -0.163603,0 -0.23435,-0.064114 -0.06854,-0.061904 -0.06854,-0.1613915 0,-0.1016988 0.07075,-0.1658133 0.07075,-0.061904 0.232139,-0.061904 h 0.07738 V 1.9463885 h -0.07738 q -0.163603,0 -0.23435,-0.061904 -0.06854,-0.064114 -0.06854,-0.1658133 0,-0.099488 0.06854,-0.1613916 0.07075,-0.064115 0.23435,-0.064115 h 0.530602 v 0.1547591 q 0.159181,-0.1083313 0.329416,-0.1613916 0.170235,-0.05306 0.349313,-0.05306 0.464277,0 0.791482,0.3161506 0.327205,0.3139398 0.327205,0.720735 0,0.4488013 -0.386898,0.7406326 -0.322783,0.2431928 -0.727367,0.2431928 -0.174657,0 -0.344892,-0.050849 Q 72.345731,3.352485 72.177707,3.2507862 Z M 73.5219,2.4725693 q 0,-0.095066 -0.07517,-0.240982 -0.07517,-0.1481265 -0.232138,-0.2454036 -0.154759,-0.099488 -0.364789,-0.099488 -0.338259,0 -0.537235,0.254247 -0.134862,0.1746567 -0.134862,0.3360483 0,0.1812891 0.192344,0.3537349 0.194554,0.170235 0.479753,0.170235 0.287409,0 0.479753,-0.170235 Q 73.5219,2.660491 73.5219,2.4725693 Z" />
      <path
         inkscape:connector-curvature="0"
         id="path22762"
         style="fill:#b9d5c4;fill-opacity:1;stroke-width:0.37731734"
         d="m 76.632554,2.5344729 q 0,0.2608795 -0.145916,0.5062832 -0.143705,0.2431928 -0.431115,0.3891084 -0.285198,0.1437049 -0.596927,0.1437049 -0.309519,0 -0.592506,-0.141494 -0.282988,-0.1437048 -0.431115,-0.3891085 -0.148127,-0.2454036 -0.148127,-0.5129157 0,-0.2719338 0.150338,-0.5328133 0.150337,-0.2630904 0.431114,-0.4134278 0.282988,-0.1503373 0.590296,-0.1503373 0.309518,0 0.594717,0.154759 0.287409,0.1525482 0.433325,0.4134278 0.145916,0.2586687 0.145916,0.5328133 z m -0.453223,0.00221 q 0,-0.2188735 -0.15697,-0.4023735 -0.214452,-0.2476145 -0.563765,-0.2476145 -0.307308,0 -0.512916,0.1967651 -0.205609,0.1967651 -0.205609,0.4554338 0,0.212241 0.20782,0.3979518 0.207819,0.1835 0.510705,0.1835 0.305096,0 0.512915,-0.1835 0.20782,-0.1857108 0.20782,-0.4001627 z" />
      <path
         inkscape:connector-curvature="0"
         id="path22764"
         style="fill:#b9d5c4;fill-opacity:1;stroke-width:0.37731734"
         d="m 77.711449,1.4931655 v 0.1525483 q 0.123808,-0.1061205 0.271934,-0.1591808 0.150337,-0.05306 0.324994,-0.05306 0.402374,0 0.636723,0.2498253 0.185711,0.1989759 0.185711,0.5217591 v 0.8423314 q 0.143705,0 0.212241,0.064115 0.06854,0.061904 0.06854,0.1636024 0,0.099488 -0.07075,0.1636024 -0.06854,0.061904 -0.232139,0.061904 h -0.409006 q -0.163602,0 -0.234349,-0.061904 -0.06854,-0.064114 -0.06854,-0.1658132 0,-0.099488 0.06854,-0.1613916 0.06854,-0.064115 0.212241,-0.064115 V 2.1917921 q 0,-0.1481265 -0.07959,-0.2166626 -0.10391,-0.088434 -0.311729,-0.088434 -0.15697,0 -0.276356,0.061904 -0.117175,0.059693 -0.298464,0.2564579 v 0.8423314 q 0.174657,0 0.225506,0.033163 0.108332,0.066325 0.108332,0.1945542 0,0.099488 -0.07075,0.1636024 -0.06854,0.061904 -0.232139,0.061904 h -0.515126 q -0.163603,0 -0.23435,-0.061904 -0.06854,-0.064114 -0.06854,-0.1658132 0,-0.1238073 0.10612,-0.1923434 0.05306,-0.033163 0.227717,-0.033163 V 1.9463885 q -0.143704,0 -0.212241,-0.064115 -0.06854,-0.064114 -0.06854,-0.1636024 0,-0.099488 0.06854,-0.1613916 0.07075,-0.064115 0.23435,-0.064115 z" />
      <path
         inkscape:connector-curvature="0"
         id="path22766"
         style="fill:#b9d5c4;fill-opacity:1;stroke-width:0.37731734"
         d="m 83.346883,3.4851356 -0.78485,-1.5387471 q -0.110542,-0.013265 -0.168024,-0.075169 -0.05748,-0.061904 -0.05748,-0.1503374 0,-0.1016988 0.06854,-0.1636024 0.07075,-0.064115 0.23435,-0.064115 h 0.413427 q 0.163603,0 0.232139,0.064115 0.07075,0.061904 0.07075,0.1636024 0,0.099488 -0.07075,0.1636025 -0.06854,0.061904 -0.218874,0.061904 l 0.535025,1.0413073 0.530602,-1.0413073 q -0.145916,0 -0.216663,-0.061904 -0.06854,-0.064114 -0.06854,-0.1658133 0,-0.099488 0.06854,-0.1613916 0.07075,-0.064115 0.23435,-0.064115 h 0.426693 q 0.161391,0 0.229927,0.064115 0.07075,0.061904 0.07075,0.1636024 0,0.090645 -0.05969,0.1547591 -0.05969,0.061904 -0.176868,0.070747 L 83.60113,3.9936297 q 0.170235,0 0.223295,0.033163 0.10612,0.068536 0.10612,0.1945543 0,0.099488 -0.07075,0.1613915 -0.06854,0.064114 -0.232138,0.064114 H 82.63941 q -0.163603,0 -0.23435,-0.064114 -0.06854,-0.061904 -0.06854,-0.1613915 0,-0.1016988 0.06854,-0.1658133 0.07075,-0.061904 0.23435,-0.061904 h 0.451012 z" />
      <path
         inkscape:connector-curvature="0"
         id="path22768"
         style="fill:#b9d5c4;fill-opacity:1;stroke-width:0.37731734"
         d="m 87.492218,2.5344729 q 0,0.2608795 -0.145915,0.5062832 -0.143705,0.2431928 -0.431115,0.3891084 -0.285199,0.1437049 -0.596927,0.1437049 -0.309519,0 -0.592507,-0.141494 Q 85.442766,3.2883706 85.29464,3.0429669 85.146513,2.7975633 85.146513,2.5300512 q 0,-0.2719338 0.150338,-0.5328133 0.150337,-0.2630904 0.431114,-0.4134278 0.282988,-0.1503373 0.590296,-0.1503373 0.309518,0 0.594716,0.154759 0.28741,0.1525482 0.433326,0.4134278 0.145915,0.2586687 0.145915,0.5328133 z m -0.453222,0.00221 q 0,-0.2188735 -0.15697,-0.4023735 -0.214452,-0.2476145 -0.563765,-0.2476145 -0.307308,0 -0.512916,0.1967651 -0.205609,0.1967651 -0.205609,0.4554338 0,0.212241 0.20782,0.3979518 0.207819,0.1835 0.510705,0.1835 0.305096,0 0.512915,-0.1835 0.20782,-0.1857108 0.20782,-0.4001627 z" />
      <path
         inkscape:connector-curvature="0"
         id="path22770"
         style="fill:#b9d5c4;fill-opacity:1;stroke-width:0.37731734"
         d="m 89.992679,1.4931655 v 1.5542231 q 0.143705,0 0.212241,0.064115 0.06854,0.064114 0.06854,0.1636024 0,0.099488 -0.07075,0.1636024 -0.06854,0.061904 -0.232138,0.061904 H 89.539456 V 3.3967019 q -0.194554,0.088434 -0.371422,0.1326506 -0.176867,0.044217 -0.336048,0.044217 -0.223295,0 -0.386897,-0.092855 Q 88.281486,3.3856485 88.18642,3.2198349 88.11788,3.1004494 88.11788,2.921371 V 1.946389 H 88.0405 q -0.163602,0 -0.234349,-0.061904 -0.06854,-0.064114 -0.06854,-0.1658133 0,-0.099488 0.06854,-0.1613916 0.07075,-0.064115 0.234349,-0.064115 h 0.530603 v 1.3486146 q 0,0.1437049 0.06854,0.212241 0.07075,0.066325 0.214452,0.066325 0.137072,0 0.294042,-0.05306 0.159181,-0.055271 0.391319,-0.1967651 V 1.9463885 h -0.163602 q -0.163603,0 -0.23435,-0.061904 -0.06854,-0.064114 -0.06854,-0.1658133 0,-0.099488 0.06854,-0.1613916 0.07075,-0.064115 0.23435,-0.064115 z" />
    </g>
  </g>
</svg>
