<?xml version="1.0" encoding="UTF-8" standalone="no"?>
<!-- Created with Inkscape (http://www.inkscape.org/) -->

<svg
   xmlns:dc="http://purl.org/dc/elements/1.1/"
   xmlns:cc="http://creativecommons.org/ns#"
   xmlns:rdf="http://www.w3.org/1999/02/22-rdf-syntax-ns#"
   xmlns:svg="http://www.w3.org/2000/svg"
   xmlns="http://www.w3.org/2000/svg"
   xmlns:sodipodi="http://sodipodi.sourceforge.net/DTD/sodipodi-0.dtd"
   xmlns:inkscape="http://www.inkscape.org/namespaces/inkscape"
   width="8.6445103mm"
   height="3.9277196mm"
   viewBox="0 0 8.6445103 3.9277196"
   version="1.1"
   id="svg9135"
   inkscape:version="0.92.4 (5da689c313, 2019-01-14)"
   sodipodi:docname="CM8_normon.svg">
  <defs
     id="defs9129" />
  <sodipodi:namedview
     id="base"
     pagecolor="#ffffff"
     bordercolor="#666666"
     borderopacity="1.0"
     inkscape:pageopacity="0.0"
     inkscape:pageshadow="2"
     inkscape:zoom="10.40179"
     inkscape:cx="4.9486626"
     inkscape:cy="2.9369758"
     inkscape:document-units="mm"
     inkscape:current-layer="g1283"
     showgrid="false"
     fit-margin-top="0"
     fit-margin-left="0"
     fit-margin-right="0"
     fit-margin-bottom="0"
     inkscape:window-width="1920"
     inkscape:window-height="1017"
     inkscape:window-x="-8"
     inkscape:window-y="-8"
     inkscape:window-maximized="1"
     showguides="true"
     units="px"
     objecttolerance="16"
     guidetolerance="16"
     inkscape:snap-perpendicular="true"
     inkscape:snap-tangential="true" />
  <metadata
     id="metadata9132">
    <rdf:RDF>
      <cc:Work
         rdf:about="">
        <dc:format>image/svg+xml</dc:format>
        <dc:type
           rdf:resource="http://purl.org/dc/dcmitype/StillImage" />
        <dc:title></dc:title>
      </cc:Work>
    </rdf:RDF>
  </metadata>
  <g
     inkscape:label="Layer 1"
     inkscape:groupmode="layer"
     id="layer1"
     transform="translate(-74.922591,-53.717701)">
    <g
       transform="translate(66.434495,77.706656)"
       style="display:inline"
       id="g1283">
      <path
         style="fill:#ffe335;fill-opacity:1;stroke:#c63434;stroke-width:0.33263156;stroke-miterlimit:4;stroke-dasharray:none;stroke-opacity:1"
         d="m 15.099855,-20.227551 c -1.526336,0 -3.052672,0 -4.579008,0 l -1.7975447,-1.797544 1.7975447,-1.797544 c 1.526336,0 3.052672,0 4.579008,0 l 1.797545,1.797544 z"
         id="path1211"
         inkscape:connector-curvature="0"
         sodipodi:nodetypes="ccccccc" />
      <g
         id="text1248"
         style="font-style:normal;font-variant:normal;font-weight:bold;font-stretch:normal;font-size:2.58605623px;line-height:1.25;font-family:'Courier New';-inkscape-font-specification:'Courier New Bold';letter-spacing:0px;word-spacing:0px;display:inline;opacity:1;fill:#5f703d;fill-opacity:1;stroke:none;stroke-width:0.21550468"
         aria-label="norm">
        <path
           id="path1268"
           style="fill:#5f703d;fill-opacity:1;stroke-width:0.21550468"
           d="m 10.15737,-22.601527 v 0.08713 q 0.07071,-0.06061 0.155315,-0.09092 0.08587,-0.03031 0.18562,-0.03031 0.229816,0 0.363665,0.142688 0.106068,0.113645 0.106068,0.298002 v 0.481098 q 0.08208,0 0.121222,0.03662 0.03914,0.03536 0.03914,0.09344 0,0.05682 -0.04041,0.09344 -0.03914,0.03536 -0.132586,0.03536 H 10.7218 q -0.09344,0 -0.133848,-0.03536 -0.03914,-0.03662 -0.03914,-0.0947 0,-0.05682 0.03914,-0.09218 0.03914,-0.03662 0.121221,-0.03662 v -0.488674 q 0,-0.0846 -0.04546,-0.123747 -0.05935,-0.05051 -0.178044,-0.05051 -0.08965,0 -0.15784,0.03536 -0.06692,0.03409 -0.170468,0.146476 v 0.481098 q 0.09976,0 0.128798,0.01894 0.06187,0.03788 0.06187,0.111119 0,0.05682 -0.04041,0.09344 -0.03914,0.03536 -0.132586,0.03536 H 9.880834 q -0.093442,0 -0.1338486,-0.03536 -0.039144,-0.03662 -0.039144,-0.0947 0,-0.07071 0.060611,-0.109856 0.030305,-0.01894 0.1300605,-0.01894 v -0.628836 q -0.082077,0 -0.1212214,-0.03662 -0.039144,-0.03662 -0.039144,-0.09344 0,-0.05682 0.039144,-0.09218 0.040407,-0.03662 0.1338486,-0.03662 z"
           inkscape:connector-curvature="0" />
        <path
           id="path1270"
           style="fill:#5f703d;fill-opacity:1;stroke-width:0.21550468"
           d="m 12.642409,-22.006785 q 0,0.149001 -0.08334,0.289164 -0.08208,0.138899 -0.246231,0.222239 -0.162891,0.08208 -0.340935,0.08208 -0.176781,0 -0.33841,-0.08081 -0.161628,-0.08208 -0.246231,-0.222239 -0.0846,-0.140162 -0.0846,-0.292951 0,-0.155315 0.08587,-0.304317 0.08587,-0.150264 0.246231,-0.236129 0.161628,-0.08587 0.337147,-0.08587 0.176781,0 0.339672,0.08839 0.164154,0.08713 0.247494,0.236129 0.08334,0.147738 0.08334,0.304316 z m -0.258858,0.0013 q 0,-0.12501 -0.08965,-0.229816 -0.122484,-0.141425 -0.321994,-0.141425 -0.175519,0 -0.292952,0.112383 -0.117433,0.112382 -0.117433,0.26012 0,0.121222 0.118696,0.227291 0.118696,0.104806 0.291689,0.104806 0.174256,0 0.292952,-0.104806 0.118696,-0.106069 0.118696,-0.228553 z"
           inkscape:connector-curvature="0" />
        <path
           id="path1272"
           style="fill:#5f703d;fill-opacity:1;stroke-width:0.21550468"
           d="m 13.356967,-22.601527 v 0.161628 q 0.162891,-0.117433 0.256332,-0.156578 0.09471,-0.03914 0.176782,-0.03914 0.126272,0 0.244968,0.09344 0.08081,0.06314 0.08081,0.128797 0,0.05556 -0.03914,0.0947 -0.03788,0.03788 -0.09218,0.03788 -0.04798,0 -0.101018,-0.04798 -0.05303,-0.04798 -0.0947,-0.04798 -0.0543,0 -0.162891,0.06819 -0.107332,0.06819 -0.26896,0.204561 v 0.390182 h 0.368715 q 0.09344,0 0.132586,0.03662 0.04041,0.03536 0.04041,0.09344 0,0.05682 -0.04041,0.09344 -0.03915,0.03536 -0.132586,0.03536 h -0.781626 q -0.09344,0 -0.133848,-0.03536 -0.03914,-0.03662 -0.03914,-0.0947 0,-0.05682 0.03914,-0.09218 0.04041,-0.03662 0.133848,-0.03662 h 0.154053 v -0.628836 h -0.09344 q -0.09344,0 -0.133849,-0.03536 -0.03914,-0.03662 -0.03914,-0.0947 0,-0.05682 0.03914,-0.09218 0.04041,-0.03662 0.133849,-0.03662 z"
           inkscape:connector-curvature="0" />
        <path
           id="path1274"
           style="fill:#5f703d;fill-opacity:1;stroke-width:0.21550468"
           d="m 14.671604,-22.601527 v 0.07324 q 0.06314,-0.06187 0.113645,-0.0846 0.05177,-0.02399 0.118696,-0.02399 0.05682,0 0.112383,0.02778 0.05556,0.02778 0.108594,0.08334 0.06692,-0.05556 0.135111,-0.08208 0.06945,-0.02778 0.141425,-0.02778 0.14395,0 0.233604,0.07703 0.118696,0.101018 0.118696,0.265172 v 0.57959 q 0.08081,0 0.119958,0.03662 0.03914,0.03662 0.03914,0.09344 0,0.05682 -0.03914,0.09344 -0.03914,0.03536 -0.132586,0.03536 H 15.4949 v -0.816982 q 0,-0.05935 -0.02147,-0.08208 -0.02147,-0.02273 -0.06566,-0.02273 -0.04293,0 -0.07955,0.02273 -0.04672,0.03157 -0.113645,0.118696 v 0.521505 q 0.08081,0 0.119959,0.03662 0.03914,0.03662 0.03914,0.09344 0,0.05682 -0.03914,0.09344 -0.03914,0.03536 -0.132586,0.03536 h -0.246231 v -0.816982 q 0,-0.05808 -0.02273,-0.08081 -0.02147,-0.02399 -0.06566,-0.02399 -0.04546,0 -0.08965,0.02904 -0.0442,0.02778 -0.106069,0.112382 v 0.521505 q 0.08081,0 0.119959,0.03662 0.04041,0.03662 0.04041,0.09344 0,0.05682 -0.04041,0.09344 -0.03914,0.03536 -0.132586,0.03536 h -0.233604 q -0.09344,0 -0.132586,-0.03536 -0.04041,-0.03662 -0.04041,-0.0947 0,-0.05682 0.03914,-0.09218 0.03914,-0.03662 0.121221,-0.03662 v -0.628836 q -0.08208,0 -0.121221,-0.03662 -0.03914,-0.03662 -0.03914,-0.09344 0,-0.05682 0.04041,-0.09218 0.03914,-0.03662 0.132586,-0.03662 z"
           inkscape:connector-curvature="0" />
      </g>
    </g>
  </g>
</svg>
